#include <stdint.h>
const uint8_t midifile[] = {
0x4d,0x54,0x68,0x64,0x00,0x00,0x00,0x06,0x00,0x01,0x00,0x02,0x04,0x00,0x4d,0x54,
0x72,0x6b,0x00,0x00,0x02,0xb6,0x00,0xff,0x54,0x05,0x00,0x00,0x00,0x00,0x00,0x00,
0xff,0x58,0x04,0x04,0x02,0x18,0x08,0x00,0xff,0x59,0x02,0x00,0x01,0x00,0xff,0x51,
0x03,0x05,0xb8,0xd8,0x00,0xff,0x51,0x03,0x05,0xb8,0xd8,0x81,0xf0,0x00,0xff,0x51,
0x03,0x05,0xb8,0xd8,0x82,0x00,0xff,0x51,0x03,0x05,0xc2,0x0e,0x82,0x00,0xff,0x51,
0x03,0x05,0xcb,0x62,0x82,0x00,0xff,0x51,0x03,0x05,0xd4,0xd5,0x82,0x00,0xff,0x51,
0x03,0x05,0xde,0x67,0x82,0x00,0xff,0x51,0x03,0x05,0xde,0x67,0x82,0x00,0xff,0x51,
0x03,0x05,0xe8,0x18,0x82,0x00,0xff,0x51,0x03,0x05,0xf1,0xea,0x84,0x00,0xff,0x51,
0x03,0x05,0xb8,0xd8,0x85,0xee,0x00,0xff,0x51,0x03,0x05,0xb8,0xd8,0x82,0x00,0xff,
0x51,0x03,0x05,0xc2,0x0e,0x82,0x00,0xff,0x51,0x03,0x05,0xcb,0x62,0x82,0x00,0xff,
0x51,0x03,0x05,0xd4,0xd5,0x82,0x00,0xff,0x51,0x03,0x05,0xde,0x67,0x82,0x00,0xff,
0x51,0x03,0x05,0xde,0x67,0x82,0x00,0xff,0x51,0x03,0x05,0xe8,0x18,0x82,0x00,0xff,
0x51,0x03,0x05,0xf1,0xea,0x84,0x00,0xff,0x51,0x03,0x05,0xb8,0xd8,0x82,0xae,0x00,
0xff,0x51,0x03,0x05,0xb8,0xd8,0x82,0x00,0xff,0x51,0x03,0x05,0xc2,0x0e,0x82,0x00,
0xff,0x51,0x03,0x05,0xcb,0x62,0x82,0x00,0xff,0x51,0x03,0x05,0xd4,0xd5,0x82,0x00,
0xff,0x51,0x03,0x05,0xde,0x67,0x82,0x00,0xff,0x51,0x03,0x05,0xde,0x67,0x82,0x00,
0xff,0x51,0x03,0x05,0xe8,0x18,0x82,0x00,0xff,0x51,0x03,0x05,0xf1,0xea,0x84,0x00,
0xff,0x51,0x03,0x05,0xb8,0xd8,0xae,0x00,0xff,0x51,0x03,0x05,0xb8,0xd8,0x82,0x00,
0xff,0x51,0x03,0x05,0xc2,0x0e,0x82,0x00,0xff,0x51,0x03,0x05,0xcb,0x62,0x82,0x00,
0xff,0x51,0x03,0x05,0xd4,0xd5,0x82,0x00,0xff,0x51,0x03,0x05,0xde,0x67,0x82,0x00,
0xff,0x51,0x03,0x05,0xde,0x67,0x82,0x00,0xff,0x51,0x03,0x05,0xe8,0x18,0x82,0x00,
0xff,0x51,0x03,0x05,0xf1,0xea,0x84,0x00,0xff,0x51,0x03,0x05,0xb8,0xd8,0xae,0x00,
0xff,0x51,0x03,0x05,0xb8,0xd8,0x82,0x00,0xff,0x51,0x03,0x05,0xc2,0x0e,0x82,0x00,
0xff,0x51,0x03,0x05,0xcb,0x62,0x82,0x00,0xff,0x51,0x03,0x05,0xd4,0xd5,0x82,0x00,
0xff,0x51,0x03,0x05,0xde,0x67,0x82,0x00,0xff,0x51,0x03,0x05,0xde,0x67,0x82,0x00,
0xff,0x51,0x03,0x05,0xe8,0x18,0x82,0x00,0xff,0x51,0x03,0x05,0xf1,0xea,0x84,0x00,
0xff,0x51,0x03,0x05,0xb8,0xd8,0xae,0x00,0xff,0x51,0x03,0x05,0xb8,0xd8,0x82,0x00,
0xff,0x51,0x03,0x05,0xc2,0x0e,0x82,0x00,0xff,0x51,0x03,0x05,0xcb,0x62,0x82,0x00,
0xff,0x51,0x03,0x05,0xd4,0xd5,0x82,0x00,0xff,0x51,0x03,0x05,0xde,0x67,0x82,0x00,
0xff,0x51,0x03,0x05,0xde,0x67,0x82,0x00,0xff,0x51,0x03,0x05,0xe8,0x18,0x82,0x00,
0xff,0x51,0x03,0x05,0xf1,0xea,0x84,0x00,0xff,0x51,0x03,0x05,0xb8,0xd8,0xae,0x00,
0xff,0x51,0x03,0x05,0xb8,0xd8,0x82,0x00,0xff,0x51,0x03,0x05,0xc2,0x0e,0x82,0x00,
0xff,0x51,0x03,0x05,0xc2,0x0e,0x82,0x00,0xff,0x51,0x03,0x05,0xcb,0x62,0x82,0x00,
0xff,0x51,0x03,0x05,0xcb,0x62,0x82,0x00,0xff,0x51,0x03,0x05,0xd4,0xd5,0x82,0x00,
0xff,0x51,0x03,0x05,0xd4,0xd5,0x82,0x00,0xff,0x51,0x03,0x05,0xde,0x67,0x82,0x00,
0xff,0x51,0x03,0x05,0xb8,0xd8,0xb0,0x00,0xff,0x51,0x03,0x05,0xb8,0xd8,0x82,0x00,
0xff,0x51,0x03,0x05,0xc2,0x0e,0x82,0x00,0xff,0x51,0x03,0x05,0xc2,0x0e,0x82,0x00,
0xff,0x51,0x03,0x05,0xcb,0x62,0x82,0x00,0xff,0x51,0x03,0x05,0xcb,0x62,0x82,0x00,
0xff,0x51,0x03,0x05,0xd4,0xd5,0x82,0x00,0xff,0x51,0x03,0x05,0xd4,0xd5,0x82,0x00,
0xff,0x51,0x03,0x05,0xde,0x67,0x82,0x00,0xff,0x51,0x03,0x05,0xb8,0xd8,0xd0,0x00,
0xff,0x51,0x03,0x05,0xb8,0xd8,0x82,0x00,0xff,0x51,0x03,0x05,0xc2,0x0e,0x82,0x00,
0xff,0x51,0x03,0x05,0xcb,0x62,0x82,0x00,0xff,0x51,0x03,0x05,0xd4,0xd5,0x82,0x00,
0xff,0x51,0x03,0x05,0xde,0x67,0x82,0x00,0xff,0x51,0x03,0x05,0xde,0x67,0x82,0x00,
0xff,0x51,0x03,0x05,0xe8,0x18,0x82,0x00,0xff,0x51,0x03,0x05,0xf1,0xea,0x84,0x00,
0xff,0x51,0x03,0x05,0xb8,0xd8,0x81,0x9e,0x00,0xff,0x2f,0x00,0x4d,0x54,0x72,0x6b,
0x00,0x00,0x3e,0x33,0x00,0xff,0x09,0x16,0x53,0x6d,0x61,0x72,0x74,0x4d,0x75,0x73,
0x69,0x63,0x20,0x53,0x6f,0x66,0x74,0x53,0x79,0x6e,0x74,0x68,0x20,0x31,0x00,0xff,
0x03,0x05,0x50,0x69,0x61,0x6e,0x6f,0x00,0xc0,0x00,0x00,0xb0,0x07,0x65,0x00,0xb0,
0x0a,0x40,0x00,0xb0,0x07,0x6e,0x00,0xb0,0x07,0x66,0x0a,0xb0,0x07,0x6e,0x00,0x90,
0x4c,0x55,0x00,0x90,0x58,0x63,0x00,0xb0,0x07,0x66,0x00,0x90,0x1c,0x51,0x00,0x90,
0x28,0x62,0x83,0x79,0x80,0x1c,0x00,0x1e,0x80,0x28,0x00,0x01,0x90,0x34,0x50,0x00,
0x90,0x37,0x50,0x00,0x90,0x3b,0x5e,0x83,0x5d,0x80,0x34,0x00,0x00,0x80,0x37,0x00,
0x1e,0x80,0x4c,0x00,0x00,0x80,0x58,0x00,0x00,0x80,0x3b,0x00,0x01,0x90,0x47,0x51,
0x00,0x90,0x53,0x5f,0x00,0x90,0x1c,0x4d,0x00,0x90,0x28,0x5e,0x83,0x5a,0x80,0x47,
0x00,0x00,0x80,0x1c,0x00,0x1e,0x80,0x53,0x00,0x00,0x80,0x28,0x00,0x01,0x90,0x48,
0x50,0x00,0x90,0x54,0x5e,0x00,0x90,0x34,0x50,0x00,0x90,0x37,0x50,0x00,0x90,0x3b,
0x5e,0x83,0x5f,0x80,0x48,0x00,0x00,0x80,0x34,0x00,0x00,0x80,0x37,0x00,0x1e,0x80,
0x54,0x00,0x00,0x80,0x3b,0x00,0x01,0x90,0x4a,0x53,0x00,0x90,0x56,0x61,0x00,0x90,
0x1c,0x4f,0x00,0x90,0x28,0x60,0x83,0x5f,0x80,0x4a,0x00,0x00,0x80,0x1c,0x00,0x1e,
0x80,0x56,0x00,0x00,0x80,0x28,0x00,0x01,0x90,0x58,0x58,0x00,0x90,0x34,0x50,0x00,
0x90,0x37,0x50,0x00,0x90,0x3b,0x5e,0x81,0x68,0x80,0x58,0x00,0x10,0x90,0x56,0x58,
0x81,0x62,0x80,0x34,0x00,0x00,0x80,0x37,0x00,0x0f,0x80,0x56,0x00,0x0f,0x80,0x3b,
0x00,0x01,0x90,0x48,0x51,0x00,0x90,0x54,0x5f,0x00,0x90,0x1c,0x4d,0x00,0x90,0x28,
0x5e,0x83,0x5a,0x80,0x48,0x00,0x00,0x80,0x1c,0x00,0x1e,0x80,0x54,0x00,0x00,0x80,
0x28,0x00,0x01,0x90,0x47,0x50,0x00,0x90,0x53,0x5e,0x00,0x90,0x34,0x50,0x00,0x90,
0x37,0x50,0x00,0x90,0x3b,0x5e,0x83,0x5c,0x80,0x47,0x00,0x00,0x80,0x34,0x00,0x00,
0x80,0x37,0x00,0x1e,0x80,0x53,0x00,0x00,0x80,0x3b,0x00,0x05,0x90,0x45,0x55,0x00,
0x90,0x51,0x63,0x00,0x90,0x21,0x52,0x00,0x90,0x2d,0x63,0x83,0x7f,0x80,0x21,0x00,
0x1e,0x80,0x2d,0x00,0x01,0x90,0x34,0x50,0x00,0x90,0x39,0x50,0x00,0x90,0x3c,0x5e,
0x83,0x5d,0x80,0x34,0x00,0x00,0x80,0x39,0x00,0x1e,0x80,0x45,0x00,0x00,0x80,0x51,
0x00,0x00,0x80,0x3c,0x00,0x01,0x90,0x45,0x51,0x00,0x90,0x51,0x5f,0x00,0x90,0x21,
0x4e,0x00,0x90,0x2d,0x5f,0x83,0x5a,0x80,0x45,0x00,0x00,0x80,0x21,0x00,0x1e,0x80,
0x51,0x00,0x00,0x80,0x2d,0x00,0x01,0x90,0x48,0x50,0x00,0x90,0x54,0x5e,0x00,0x90,
0x30,0x50,0x00,0x90,0x34,0x50,0x00,0x90,0x39,0x5e,0x83,0x5f,0x80,0x48,0x00,0x00,
0x80,0x30,0x00,0x00,0x80,0x34,0x00,0x1e,0x80,0x54,0x00,0x00,0x80,0x39,0x00,0x01,
0x90,0x4c,0x53,0x00,0x90,0x58,0x61,0x00,0x90,0x21,0x50,0x00,0x90,0x2d,0x61,0x83,
0x5f,0x80,0x21,0x00,0x1e,0x80,0x2d,0x00,0x01,0x90,0x34,0x50,0x00,0x90,0x39,0x50,
0x00,0x90,0x3c,0x5e,0x83,0x5a,0x80,0x34,0x00,0x00,0x80,0x39,0x00,0x1e,0x80,0x4c,
0x00,0x00,0x80,0x58,0x00,0x00,0x80,0x3c,0x00,0x01,0x90,0x4a,0x51,0x00,0x90,0x56,
0x5f,0x00,0x90,0x21,0x4e,0x00,0x90,0x2d,0x5f,0x83,0x5a,0x80,0x4a,0x00,0x00,0x80,
0x21,0x00,0x1e,0x80,0x56,0x00,0x00,0x80,0x2d,0x00,0x01,0x90,0x48,0x50,0x00,0x90,
0x54,0x5e,0x00,0x90,0x39,0x50,0x00,0x90,0x3c,0x50,0x00,0x90,0x40,0x5e,0x83,0x5c,
0x80,0x48,0x00,0x00,0x80,0x39,0x00,0x00,0x80,0x3c,0x00,0x1e,0x80,0x54,0x00,0x00,
0x80,0x40,0x00,0x05,0x90,0x47,0x55,0x00,0x90,0x53,0x63,0x00,0x90,0x20,0x52,0x00,
0x90,0x2c,0x63,0x83,0x7f,0x80,0x20,0x00,0x1e,0x80,0x2c,0x00,0x01,0x90,0x34,0x50,
0x00,0x90,0x38,0x50,0x00,0x90,0x3b,0x5e,0x83,0x5d,0x80,0x34,0x00,0x00,0x80,0x38,
0x00,0x1e,0x80,0x47,0x00,0x00,0x80,0x53,0x00,0x00,0x80,0x3b,0x00,0x01,0x90,0x47,
0x51,0x00,0x90,0x53,0x5f,0x00,0x90,0x1c,0x4d,0x00,0x90,0x28,0x5e,0x83,0x5a,0x80,
0x47,0x00,0x00,0x80,0x1c,0x00,0x1e,0x80,0x53,0x00,0x00,0x80,0x28,0x00,0x01,0x90,
0x48,0x50,0x00,0x90,0x54,0x5e,0x00,0x90,0x34,0x50,0x00,0x90,0x38,0x50,0x00,0x90,
0x3b,0x5e,0x83,0x5f,0x80,0x48,0x00,0x00,0x80,0x34,0x00,0x00,0x80,0x38,0x00,0x1e,
0x80,0x54,0x00,0x00,0x80,0x3b,0x00,0x01,0x90,0x4a,0x53,0x00,0x90,0x56,0x61,0x00,
0x90,0x20,0x50,0x00,0x90,0x2c,0x61,0x83,0x5f,0x80,0x20,0x00,0x1e,0x80,0x2c,0x00,
0x01,0x90,0x34,0x50,0x00,0x90,0x38,0x50,0x00,0x90,0x3b,0x50,0x00,0x90,0x40,0x5e,
0x83,0x5a,0x80,0x34,0x00,0x00,0x80,0x38,0x00,0x1e,0x80,0x4a,0x00,0x00,0x80,0x56,
0x00,0x00,0x80,0x3b,0x00,0x00,0x80,0x40,0x00,0x01,0x90,0x4c,0x51,0x00,0x90,0x58,
0x5f,0x00,0x90,0x1c,0x4d,0x00,0x90,0x28,0x5e,0x83,0x5a,0x80,0x1c,0x00,0x1e,0x80,
0x28,0x00,0x01,0x90,0x34,0x50,0x00,0x90,0x38,0x50,0x00,0x90,0x3b,0x50,0x00,0x90,
0x40,0x5e,0x83,0x5c,0x80,0x34,0x00,0x00,0x80,0x38,0x00,0x1e,0x80,0x4c,0x00,0x00,
0x80,0x58,0x00,0x00,0x80,0x3b,0x00,0x00,0x80,0x40,0x00,0x05,0x90,0x48,0x55,0x00,
0x90,0x54,0x63,0x00,0x90,0x21,0x52,0x00,0x90,0x2d,0x63,0x83,0x7f,0x80,0x21,0x00,
0x1e,0x80,0x48,0x00,0x00,0x80,0x54,0x00,0x00,0x80,0x2d,0x00,0x01,0x90,0x40,0x50,
0x00,0x90,0x45,0x50,0x00,0x90,0x48,0x5e,0x00,0x90,0x30,0x50,0x00,0x90,0x34,0x50,
0x00,0x90,0x39,0x50,0x00,0x90,0x3c,0x5e,0x83,0x5d,0x80,0x40,0x00,0x00,0x80,0x30,
0x00,0x1e,0x80,0x45,0x00,0x00,0x80,0x48,0x00,0x00,0x80,0x34,0x00,0x00,0x80,0x39,
0x00,0x00,0x80,0x3c,0x00,0x01,0x90,0x45,0x51,0x00,0x90,0x51,0x5f,0x00,0x90,0x15,
0x4e,0x00,0x90,0x21,0x5f,0x83,0x5a,0x80,0x15,0x00,0x1e,0x80,0x45,0x00,0x00,0x80,
0x51,0x00,0x00,0x80,0x21,0x00,0x01,0x90,0x45,0x50,0x00,0x90,0x48,0x50,0x00,0x90,
0x4c,0x5e,0x00,0x90,0x34,0x50,0x00,0x90,0x39,0x50,0x00,0x90,0x3c,0x50,0x00,0x90,
0x40,0x5e,0x83,0x5f,0x80,0x48,0x00,0x00,0x80,0x34,0x00,0x1e,0x80,0x45,0x00,0x00,
0x80,0x4c,0x00,0x00,0x80,0x39,0x00,0x00,0x80,0x3c,0x00,0x00,0x80,0x40,0x00,0x01,
0x90,0x45,0x53,0x00,0x90,0x51,0x61,0x00,0x90,0x21,0x50,0x00,0x90,0x2d,0x61,0x83,
0x5f,0x80,0x45,0x00,0x00,0x80,0x21,0x00,0x1e,0x80,0x51,0x00,0x00,0x80,0x2d,0x00,
0x01,0x90,0x48,0x5b,0x00,0x90,0x4c,0x5b,0x00,0x90,0x51,0x56,0x00,0x90,0x39,0x50,
0x00,0x90,0x3c,0x50,0x00,0x90,0x40,0x50,0x00,0x90,0x45,0x5e,0x83,0x5a,0x80,0x48,
0x00,0x00,0x80,0x4c,0x00,0x1e,0x80,0x51,0x00,0x00,0x80,0x39,0x00,0x00,0x80,0x3c,
0x00,0x00,0x80,0x40,0x00,0x00,0x80,0x45,0x00,0x01,0x90,0x51,0x59,0x00,0x90,0x39,
0x59,0x81,0x71,0x80,0x51,0x00,0x00,0x80,0x39,0x00,0x10,0x90,0x53,0x58,0x00,0x90,
0x3b,0x58,0x81,0x68,0x80,0x53,0x00,0x00,0x80,0x3b,0x00,0x10,0x90,0x54,0x58,0x00,
0x90,0x3c,0x58,0x81,0x68,0x80,0x54,0x00,0x00,0x80,0x3c,0x00,0x10,0x90,0x56,0x58,
0x00,0x90,0x3e,0x58,0x81,0x73,0x80,0x56,0x00,0x00,0x80,0x3e,0x00,0x14,0x90,0x4c,
0x55,0x00,0x90,0x58,0x63,0x00,0x90,0x34,0x55,0x00,0x90,0x40,0x63,0x83,0x7f,0x80,
0x4c,0x00,0x00,0x80,0x34,0x00,0x1e,0x80,0x58,0x00,0x00,0x80,0x40,0x00,0x01,0x90,
0x4a,0x50,0x00,0x90,0x56,0x5e,0x00,0x90,0x26,0x4f,0x00,0x90,0x29,0x50,0x00,0x90,
0x2d,0x5e,0x83,0x5d,0x80,0x26,0x00,0x00,0x80,0x29,0x00,0x1e,0x80,0x2d,0x00,0x01,
0x90,0x32,0x51,0x00,0x90,0x41,0x5f,0x83,0x5a,0x80,0x32,0x00,0x1e,0x80,0x4a,0x00,
0x00,0x80,0x56,0x00,0x00,0x80,0x41,0x00,0x01,0x90,0x4d,0x50,0x00,0x90,0x59,0x5e,
0x00,0x90,0x26,0x4f,0x00,0x90,0x29,0x50,0x00,0x90,0x2d,0x5e,0x83,0x5f,0x80,0x4d,
0x00,0x00,0x80,0x26,0x00,0x00,0x80,0x29,0x00,0x1e,0x80,0x59,0x00,0x00,0x80,0x2d,
0x00,0x01,0x90,0x51,0x53,0x00,0x90,0x5d,0x61,0x00,0x90,0x39,0x53,0x00,0x90,0x45,
0x61,0x83,0x5f,0x80,0x39,0x00,0x1e,0x80,0x45,0x00,0x01,0x90,0x26,0x4f,0x00,0x90,
0x29,0x50,0x00,0x90,0x2d,0x5e,0x83,0x5a,0x80,0x26,0x00,0x00,0x80,0x29,0x00,0x1e,
0x80,0x51,0x00,0x00,0x80,0x5d,0x00,0x00,0x80,0x2d,0x00,0x01,0x90,0x4f,0x51,0x00,
0x90,0x5b,0x5f,0x00,0x90,0x2d,0x51,0x00,0x90,0x39,0x5f,0x83,0x5a,0x80,0x4f,0x00,
0x00,0x80,0x2d,0x00,0x1e,0x80,0x5b,0x00,0x00,0x80,0x39,0x00,0x01,0x90,0x4d,0x50,
0x00,0x90,0x59,0x5e,0x00,0x90,0x29,0x50,0x00,0x90,0x35,0x5e,0x83,0x5c,0x80,0x4d,
0x00,0x00,0x80,0x29,0x00,0x1e,0x80,0x59,0x00,0x00,0x80,0x35,0x00,0x05,0x90,0x4c,
0x55,0x00,0x90,0x58,0x63,0x00,0x90,0x24,0x53,0x00,0x90,0x30,0x63,0x83,0x7f,0x80,
0x24,0x00,0x1e,0x80,0x30,0x00,0x01,0x90,0x30,0x50,0x00,0x90,0x3c,0x5e,0x83,0x7b,
0x80,0x30,0x00,0x00,0x80,0x3c,0x00,0x01,0x90,0x24,0x4f,0x00,0x90,0x30,0x5f,0x83,
0x5a,0x80,0x24,0x00,0x1e,0x80,0x4c,0x00,0x00,0x80,0x58,0x00,0x00,0x80,0x30,0x00,
0x01,0x90,0x48,0x50,0x00,0x90,0x54,0x5e,0x00,0x90,0x30,0x50,0x00,0x90,0x3c,0x5e,
0x83,0x5f,0x80,0x48,0x00,0x1e,0x80,0x54,0x00,0x00,0x80,0x30,0x00,0x00,0x80,0x3c,
0x00,0x01,0x90,0x4c,0x53,0x00,0x90,0x58,0x61,0x00,0x90,0x24,0x51,0x00,0x90,0x30,
0x61,0x83,0x5f,0x80,0x24,0x00,0x1e,0x80,0x30,0x00,0x01,0x90,0x34,0x50,0x00,0x90,
0x39,0x50,0x00,0x90,0x3c,0x5e,0x83,0x5a,0x80,0x34,0x00,0x00,0x80,0x39,0x00,0x1e,
0x80,0x4c,0x00,0x00,0x80,0x58,0x00,0x00,0x80,0x3c,0x00,0x01,0x90,0x4a,0x51,0x00,
0x90,0x56,0x5f,0x00,0x90,0x1f,0x4e,0x00,0x90,0x2b,0x5f,0x83,0x5a,0x80,0x4a,0x00,
0x00,0x80,0x1f,0x00,0x1e,0x80,0x56,0x00,0x00,0x80,0x2b,0x00,0x01,0x90,0x48,0x50,
0x00,0x90,0x54,0x5e,0x00,0x90,0x34,0x50,0x00,0x90,0x39,0x50,0x00,0x90,0x3c,0x5e,
0x83,0x5c,0x80,0x48,0x00,0x00,0x80,0x34,0x00,0x00,0x80,0x39,0x00,0x1e,0x80,0x54,
0x00,0x00,0x80,0x3c,0x00,0x05,0x90,0x47,0x55,0x00,0x90,0x53,0x63,0x00,0x90,0x23,
0x53,0x00,0x90,0x2f,0x63,0x83,0x7f,0x80,0x23,0x00,0x1e,0x80,0x2f,0x00,0x01,0x90,
0x2f,0x50,0x00,0x90,0x3b,0x5e,0x83,0x7b,0x80,0x47,0x00,0x00,0x80,0x53,0x00,0x00,
0x80,0x2f,0x00,0x00,0x80,0x3b,0x00,0x01,0x90,0x47,0x51,0x00,0x90,0x53,0x5f,0x00,
0x90,0x23,0x4f,0x00,0x90,0x2f,0x5f,0x83,0x5a,0x80,0x47,0x00,0x00,0x80,0x23,0x00,
0x1e,0x80,0x53,0x00,0x00,0x80,0x2f,0x00,0x01,0x90,0x48,0x50,0x00,0x90,0x54,0x5e,
0x00,0x90,0x2f,0x50,0x00,0x90,0x3b,0x5e,0x83,0x5f,0x80,0x48,0x00,0x00,0x80,0x2f,
0x00,0x1e,0x80,0x54,0x00,0x00,0x80,0x3b,0x00,0x01,0x90,0x4a,0x53,0x00,0x90,0x56,
0x61,0x00,0x90,0x32,0x53,0x00,0x90,0x3e,0x61,0x83,0x5f,0x80,0x32,0x00,0x1e,0x80,
0x3e,0x00,0x01,0x90,0x28,0x4f,0x00,0x90,0x34,0x5e,0x83,0x5a,0x80,0x28,0x00,0x1e,
0x80,0x4a,0x00,0x00,0x80,0x56,0x00,0x00,0x80,0x34,0x00,0x01,0x90,0x4c,0x51,0x00,
0x90,0x58,0x5f,0x00,0x90,0x34,0x51,0x00,0x90,0x38,0x51,0x00,0x90,0x3b,0x5f,0x83,
0x5a,0x80,0x34,0x00,0x1e,0x80,0x38,0x00,0x00,0x80,0x3b,0x00,0x01,0x90,0x2c,0x50,
0x00,0x90,0x38,0x5e,0x83,0x5c,0x80,0x2c,0x00,0x1e,0x80,0x4c,0x00,0x00,0x80,0x58,
0x00,0x00,0x80,0x38,0x00,0x05,0x90,0x48,0x55,0x00,0x90,0x54,0x63,0x00,0x90,0x21,
0x52,0x00,0x90,0x2d,0x63,0x83,0x7f,0x80,0x21,0x00,0x1e,0x80,0x2d,0x00,0x01,0x90,
0x30,0x50,0x00,0x90,0x34,0x50,0x00,0x90,0x39,0x5e,0x83,0x5d,0x80,0x30,0x00,0x00,
0x80,0x34,0x00,0x1e,0x80,0x48,0x00,0x00,0x80,0x54,0x00,0x00,0x80,0x39,0x00,0x01,
0x90,0x45,0x51,0x00,0x90,0x51,0x5f,0x00,0x90,0x21,0x4e,0x00,0x90,0x2d,0x5f,0x83,
0x5a,0x80,0x21,0x00,0x1e,0x80,0x2d,0x00,0x01,0x90,0x34,0x50,0x00,0x90,0x39,0x50,
0x00,0x90,0x3c,0x5e,0x83,0x5f,0x80,0x34,0x00,0x00,0x80,0x39,0x00,0x1e,0x80,0x45,
0x00,0x00,0x80,0x51,0x00,0x00,0x80,0x3c,0x00,0x01,0x90,0x45,0x53,0x00,0x90,0x51,
0x61,0x00,0x90,0x21,0x50,0x00,0x90,0x2d,0x61,0x83,0x5f,0x80,0x21,0x00,0x1e,0x80,
0x2d,0x00,0x01,0x90,0x39,0x50,0x00,0x90,0x3c,0x50,0x00,0x90,0x40,0x5e,0x83,0x5a,
0x80,0x39,0x00,0x00,0x80,0x3c,0x00,0x1e,0x80,0x45,0x00,0x00,0x80,0x51,0x00,0x00,
0x80,0x40,0x00,0x01,0x90,0x28,0x50,0x00,0x90,0x34,0x5f,0x81,0x4b,0xb0,0x07,0x6e,
0x26,0x80,0x28,0x00,0x0f,0x80,0x34,0x00,0x01,0x90,0x26,0x4f,0x00,0x90,0x32,0x5e,
0x81,0x68,0x80,0x26,0x00,0x0f,0x80,0x32,0x00,0x01,0x90,0x24,0x4e,0x00,0x90,0x30,
0x5e,0x81,0x68,0x80,0x24,0x00,0x0f,0x80,0x30,0x00,0x01,0x90,0x23,0x4e,0x00,0x90,
0x2f,0x5e,0x81,0x73,0x80,0x23,0x00,0x0f,0x80,0x2f,0x00,0x05,0x90,0x58,0x55,0x00,
0x90,0x64,0x63,0x00,0x90,0x1c,0x51,0x00,0x90,0x28,0x62,0x83,0x7f,0x80,0x1c,0x00,
0x1e,0x80,0x28,0x00,0x01,0x90,0x34,0x50,0x00,0x90,0x37,0x50,0x00,0x90,0x3b,0x5e,
0x83,0x5d,0x80,0x34,0x00,0x00,0x80,0x37,0x00,0x1e,0x80,0x58,0x00,0x00,0x80,0x64,
0x00,0x00,0x80,0x3b,0x00,0x01,0x90,0x53,0x51,0x00,0x90,0x5f,0x5f,0x00,0x90,0x1c,
0x4d,0x00,0x90,0x28,0x5e,0x83,0x5a,0x80,0x53,0x00,0x00,0x80,0x1c,0x00,0x1e,0x80,
0x5f,0x00,0x00,0x80,0x28,0x00,0x01,0x90,0x54,0x50,0x00,0x90,0x60,0x5e,0x00,0x90,
0x34,0x50,0x00,0x90,0x37,0x50,0x00,0x90,0x3b,0x5e,0x83,0x5f,0x80,0x54,0x00,0x00,
0x80,0x34,0x00,0x00,0x80,0x37,0x00,0x1e,0x80,0x60,0x00,0x00,0x80,0x3b,0x00,0x01,
0x90,0x56,0x53,0x00,0x90,0x62,0x61,0x00,0x90,0x1c,0x4f,0x00,0x90,0x28,0x60,0x83,
0x5f,0x80,0x56,0x00,0x00,0x80,0x1c,0x00,0x1e,0x80,0x62,0x00,0x00,0x80,0x28,0x00,
0x01,0x90,0x64,0x58,0x00,0x90,0x34,0x50,0x00,0x90,0x37,0x50,0x00,0x90,0x3b,0x5e,
0x81,0x68,0x80,0x64,0x00,0x10,0x90,0x62,0x58,0x81,0x62,0x80,0x34,0x00,0x00,0x80,
0x37,0x00,0x0f,0x80,0x62,0x00,0x0f,0x80,0x3b,0x00,0x01,0x90,0x54,0x51,0x00,0x90,
0x60,0x5f,0x00,0x90,0x1c,0x4d,0x00,0x90,0x28,0x5e,0x83,0x5a,0x80,0x54,0x00,0x00,
0x80,0x1c,0x00,0x1e,0x80,0x60,0x00,0x00,0x80,0x28,0x00,0x01,0x90,0x53,0x50,0x00,
0x90,0x5f,0x5e,0x00,0x90,0x34,0x50,0x00,0x90,0x37,0x50,0x00,0x90,0x3b,0x5e,0x83,
0x5c,0x80,0x53,0x00,0x00,0x80,0x34,0x00,0x00,0x80,0x37,0x00,0x1e,0x80,0x5f,0x00,
0x00,0x80,0x3b,0x00,0x05,0x90,0x51,0x55,0x00,0x90,0x5d,0x63,0x00,0x90,0x21,0x52,
0x00,0x90,0x2d,0x63,0x83,0x7f,0x80,0x21,0x00,0x1e,0x80,0x2d,0x00,0x01,0x90,0x34,
0x50,0x00,0x90,0x39,0x50,0x00,0x90,0x3c,0x5e,0x83,0x5d,0x80,0x34,0x00,0x00,0x80,
0x39,0x00,0x1e,0x80,0x51,0x00,0x00,0x80,0x5d,0x00,0x00,0x80,0x3c,0x00,0x01,0x90,
0x51,0x51,0x00,0x90,0x5d,0x5f,0x00,0x90,0x21,0x4e,0x00,0x90,0x2d,0x5f,0x83,0x5a,
0x80,0x51,0x00,0x00,0x80,0x21,0x00,0x1e,0x80,0x5d,0x00,0x00,0x80,0x2d,0x00,0x01,
0x90,0x54,0x50,0x00,0x90,0x60,0x5e,0x00,0x90,0x30,0x50,0x00,0x90,0x34,0x50,0x00,
0x90,0x39,0x5e,0x83,0x5f,0x80,0x54,0x00,0x00,0x80,0x30,0x00,0x00,0x80,0x34,0x00,
0x1e,0x80,0x60,0x00,0x00,0x80,0x39,0x00,0x01,0x90,0x58,0x53,0x00,0x90,0x64,0x61,
0x00,0x90,0x21,0x50,0x00,0x90,0x2d,0x61,0x83,0x5f,0x80,0x21,0x00,0x1e,0x80,0x2d,
0x00,0x01,0x90,0x34,0x50,0x00,0x90,0x39,0x50,0x00,0x90,0x3c,0x5e,0x83,0x5a,0x80,
0x34,0x00,0x00,0x80,0x39,0x00,0x1e,0x80,0x58,0x00,0x00,0x80,0x64,0x00,0x00,0x80,
0x3c,0x00,0x01,0x90,0x56,0x51,0x00,0x90,0x62,0x5f,0x00,0x90,0x21,0x4e,0x00,0x90,
0x2d,0x5f,0x83,0x5a,0x80,0x56,0x00,0x00,0x80,0x21,0x00,0x1e,0x80,0x62,0x00,0x00,
0x80,0x2d,0x00,0x01,0x90,0x54,0x50,0x00,0x90,0x60,0x5e,0x00,0x90,0x39,0x50,0x00,
0x90,0x3c,0x50,0x00,0x90,0x40,0x5e,0x83,0x5c,0x80,0x54,0x00,0x00,0x80,0x39,0x00,
0x00,0x80,0x3c,0x00,0x1e,0x80,0x60,0x00,0x00,0x80,0x40,0x00,0x05,0x90,0x53,0x55,
0x00,0x90,0x5f,0x63,0x00,0x90,0x20,0x52,0x00,0x90,0x2c,0x63,0x83,0x7f,0x80,0x20,
0x00,0x1e,0x80,0x2c,0x00,0x01,0x90,0x34,0x50,0x00,0x90,0x38,0x50,0x00,0x90,0x3b,
0x5e,0x83,0x5d,0x80,0x34,0x00,0x00,0x80,0x38,0x00,0x1e,0x80,0x53,0x00,0x00,0x80,
0x5f,0x00,0x00,0x80,0x3b,0x00,0x01,0x90,0x53,0x51,0x00,0x90,0x5f,0x5f,0x00,0x90,
0x1c,0x4d,0x00,0x90,0x28,0x5e,0x83,0x5a,0x80,0x53,0x00,0x00,0x80,0x1c,0x00,0x1e,
0x80,0x5f,0x00,0x00,0x80,0x28,0x00,0x01,0x90,0x54,0x50,0x00,0x90,0x60,0x5e,0x00,
0x90,0x34,0x50,0x00,0x90,0x38,0x50,0x00,0x90,0x3b,0x5e,0x83,0x5f,0x80,0x54,0x00,
0x00,0x80,0x34,0x00,0x00,0x80,0x38,0x00,0x1e,0x80,0x60,0x00,0x00,0x80,0x3b,0x00,
0x01,0x90,0x56,0x53,0x00,0x90,0x62,0x61,0x00,0x90,0x20,0x50,0x00,0x90,0x2c,0x61,
0x83,0x5f,0x80,0x20,0x00,0x1e,0x80,0x2c,0x00,0x01,0x90,0x34,0x50,0x00,0x90,0x38,
0x50,0x00,0x90,0x3b,0x50,0x00,0x90,0x40,0x5e,0x83,0x5a,0x80,0x34,0x00,0x00,0x80,
0x38,0x00,0x1e,0x80,0x56,0x00,0x00,0x80,0x62,0x00,0x00,0x80,0x3b,0x00,0x00,0x80,
0x40,0x00,0x01,0x90,0x58,0x51,0x00,0x90,0x64,0x5f,0x00,0x90,0x1c,0x4d,0x00,0x90,
0x28,0x5e,0x83,0x5a,0x80,0x1c,0x00,0x1e,0x80,0x28,0x00,0x01,0x90,0x34,0x50,0x00,
0x90,0x38,0x50,0x00,0x90,0x3b,0x50,0x00,0x90,0x40,0x5e,0x83,0x5c,0x80,0x34,0x00,
0x00,0x80,0x38,0x00,0x1e,0x80,0x58,0x00,0x00,0x80,0x64,0x00,0x00,0x80,0x3b,0x00,
0x00,0x80,0x40,0x00,0x05,0x90,0x54,0x55,0x00,0x90,0x60,0x63,0x00,0x90,0x21,0x52,
0x00,0x90,0x2d,0x63,0x83,0x7f,0x80,0x21,0x00,0x1e,0x80,0x2d,0x00,0x01,0x90,0x30,
0x50,0x00,0x90,0x34,0x50,0x00,0x90,0x39,0x50,0x00,0x90,0x3c,0x5e,0x83,0x5d,0x80,
0x30,0x00,0x1e,0x80,0x54,0x00,0x00,0x80,0x60,0x00,0x00,0x80,0x34,0x00,0x00,0x80,
0x39,0x00,0x00,0x80,0x3c,0x00,0x01,0x90,0x51,0x51,0x00,0x90,0x5d,0x5f,0x00,0x90,
0x15,0x4e,0x00,0x90,0x21,0x5f,0x83,0x5a,0x80,0x15,0x00,0x1e,0x80,0x21,0x00,0x01,
0x90,0x34,0x50,0x00,0x90,0x39,0x50,0x00,0x90,0x3c,0x50,0x00,0x90,0x40,0x5e,0x83,
0x5f,0x80,0x34,0x00,0x1e,0x80,0x51,0x00,0x00,0x80,0x5d,0x00,0x00,0x80,0x39,0x00,
0x00,0x80,0x3c,0x00,0x00,0x80,0x40,0x00,0x01,0x90,0x51,0x53,0x00,0x90,0x5d,0x5d,
0x00,0x90,0x21,0x50,0x00,0x90,0x2d,0x61,0x83,0x5f,0x80,0x21,0x00,0x1e,0x80,0x2d,
0x00,0x01,0x90,0x39,0x50,0x00,0x90,0x3c,0x50,0x00,0x90,0x40,0x50,0x00,0x90,0x45,
0x5e,0x83,0x78,0x80,0x51,0x00,0x00,0x80,0x5d,0x00,0x00,0x80,0x39,0x00,0x00,0x80,
0x3c,0x00,0x00,0x80,0x40,0x00,0x00,0x80,0x45,0x00,0x01,0x90,0x5d,0x59,0x00,0x90,
0x39,0x59,0x81,0x71,0x80,0x5d,0x00,0x00,0x80,0x39,0x00,0x10,0x90,0x5f,0x58,0x00,
0x90,0x3b,0x58,0x81,0x68,0x80,0x5f,0x00,0x00,0x80,0x3b,0x00,0x10,0x90,0x60,0x58,
0x00,0x90,0x3c,0x58,0x81,0x68,0x80,0x60,0x00,0x00,0x80,0x3c,0x00,0x10,0x90,0x62,
0x58,0x00,0x90,0x3e,0x58,0x81,0x73,0x80,0x62,0x00,0x00,0x80,0x3e,0x00,0x14,0x90,
0x58,0x55,0x00,0x90,0x64,0x63,0x00,0x90,0x34,0x55,0x00,0x90,0x40,0x63,0x83,0x7f,
0x80,0x58,0x00,0x00,0x80,0x34,0x00,0x1e,0x80,0x64,0x00,0x00,0x80,0x40,0x00,0x01,
0x90,0x56,0x50,0x00,0x90,0x62,0x5e,0x00,0x90,0x26,0x4f,0x00,0x90,0x29,0x50,0x00,
0x90,0x2d,0x5e,0x83,0x5d,0x80,0x26,0x00,0x00,0x80,0x29,0x00,0x1e,0x80,0x2d,0x00,
0x01,0x90,0x32,0x51,0x00,0x90,0x41,0x5f,0x83,0x5a,0x80,0x32,0x00,0x1e,0x80,0x56,
0x00,0x00,0x80,0x62,0x00,0x00,0x80,0x41,0x00,0x01,0x90,0x59,0x50,0x00,0x90,0x65,
0x5e,0x00,0x90,0x26,0x4f,0x00,0x90,0x29,0x50,0x00,0x90,0x2d,0x5e,0x83,0x5f,0x80,
0x59,0x00,0x00,0x80,0x26,0x00,0x00,0x80,0x29,0x00,0x1e,0x80,0x65,0x00,0x00,0x80,
0x2d,0x00,0x01,0x90,0x5d,0x53,0x00,0x90,0x69,0x61,0x00,0x90,0x39,0x53,0x00,0x90,
0x45,0x61,0x83,0x5f,0x80,0x39,0x00,0x1e,0x80,0x45,0x00,0x01,0x90,0x26,0x4f,0x00,
0x90,0x29,0x50,0x00,0x90,0x2d,0x5e,0x83,0x5a,0x80,0x26,0x00,0x00,0x80,0x29,0x00,
0x1e,0x80,0x5d,0x00,0x00,0x80,0x69,0x00,0x00,0x80,0x2d,0x00,0x01,0x90,0x5b,0x51,
0x00,0x90,0x67,0x5f,0x00,0x90,0x2d,0x51,0x00,0x90,0x39,0x5f,0x83,0x5a,0x80,0x5b,
0x00,0x00,0x80,0x2d,0x00,0x1e,0x80,0x67,0x00,0x00,0x80,0x39,0x00,0x01,0x90,0x59,
0x50,0x00,0x90,0x65,0x5e,0x00,0x90,0x29,0x50,0x00,0x90,0x35,0x5e,0x83,0x5c,0x80,
0x59,0x00,0x00,0x80,0x29,0x00,0x1e,0x80,0x65,0x00,0x00,0x80,0x35,0x00,0x05,0x90,
0x58,0x55,0x00,0x90,0x64,0x63,0x00,0x90,0x24,0x53,0x00,0x90,0x30,0x63,0x83,0x7f,
0x80,0x24,0x00,0x1e,0x80,0x30,0x00,0x01,0x90,0x30,0x50,0x00,0x90,0x3c,0x5e,0x83,
0x7b,0x80,0x30,0x00,0x00,0x80,0x3c,0x00,0x01,0x90,0x24,0x4f,0x00,0x90,0x30,0x5f,
0x83,0x5a,0x80,0x24,0x00,0x1e,0x80,0x58,0x00,0x00,0x80,0x64,0x00,0x00,0x80,0x30,
0x00,0x01,0x90,0x54,0x50,0x00,0x90,0x60,0x5e,0x00,0x90,0x30,0x50,0x00,0x90,0x3c,
0x5e,0x83,0x5f,0x80,0x54,0x00,0x1e,0x80,0x60,0x00,0x00,0x80,0x30,0x00,0x00,0x80,
0x3c,0x00,0x01,0x90,0x58,0x53,0x00,0x90,0x64,0x61,0x00,0x90,0x24,0x51,0x00,0x90,
0x30,0x61,0x83,0x5f,0x80,0x24,0x00,0x1e,0x80,0x30,0x00,0x01,0x90,0x34,0x50,0x00,
0x90,0x39,0x50,0x00,0x90,0x3c,0x5e,0x83,0x5a,0x80,0x34,0x00,0x00,0x80,0x39,0x00,
0x1e,0x80,0x58,0x00,0x00,0x80,0x64,0x00,0x00,0x80,0x3c,0x00,0x01,0x90,0x56,0x51,
0x00,0x90,0x62,0x5f,0x00,0x90,0x1f,0x4e,0x00,0x90,0x2b,0x5f,0x83,0x5a,0x80,0x56,
0x00,0x00,0x80,0x1f,0x00,0x1e,0x80,0x62,0x00,0x00,0x80,0x2b,0x00,0x01,0x90,0x54,
0x50,0x00,0x90,0x60,0x5e,0x00,0x90,0x34,0x50,0x00,0x90,0x39,0x50,0x00,0x90,0x3c,
0x5e,0x83,0x5c,0x80,0x54,0x00,0x00,0x80,0x34,0x00,0x00,0x80,0x39,0x00,0x1e,0x80,
0x60,0x00,0x00,0x80,0x3c,0x00,0x05,0x90,0x53,0x55,0x00,0x90,0x5f,0x63,0x00,0x90,
0x23,0x53,0x00,0x90,0x2f,0x63,0x83,0x7f,0x80,0x23,0x00,0x1e,0x80,0x2f,0x00,0x01,
0x90,0x2f,0x50,0x00,0x90,0x3b,0x5e,0x83,0x7b,0x80,0x53,0x00,0x00,0x80,0x5f,0x00,
0x00,0x80,0x2f,0x00,0x00,0x80,0x3b,0x00,0x01,0x90,0x53,0x51,0x00,0x90,0x5f,0x5f,
0x00,0x90,0x23,0x4f,0x00,0x90,0x2f,0x5f,0x83,0x5a,0x80,0x53,0x00,0x00,0x80,0x23,
0x00,0x1e,0x80,0x5f,0x00,0x00,0x80,0x2f,0x00,0x01,0x90,0x54,0x50,0x00,0x90,0x60,
0x5e,0x00,0x90,0x2f,0x50,0x00,0x90,0x3b,0x5e,0x83,0x5f,0x80,0x54,0x00,0x00,0x80,
0x2f,0x00,0x1e,0x80,0x60,0x00,0x00,0x80,0x3b,0x00,0x01,0x90,0x56,0x53,0x00,0x90,
0x62,0x61,0x00,0x90,0x32,0x53,0x00,0x90,0x3e,0x61,0x83,0x5f,0x80,0x32,0x00,0x1e,
0x80,0x3e,0x00,0x01,0x90,0x28,0x4f,0x00,0x90,0x34,0x5e,0x83,0x5a,0x80,0x28,0x00,
0x1e,0x80,0x56,0x00,0x00,0x80,0x62,0x00,0x00,0x80,0x34,0x00,0x01,0x90,0x58,0x51,
0x00,0x90,0x64,0x5f,0x00,0x90,0x34,0x51,0x00,0x90,0x38,0x51,0x00,0x90,0x3b,0x5f,
0x83,0x5a,0x80,0x34,0x00,0x1e,0x80,0x38,0x00,0x00,0x80,0x3b,0x00,0x01,0x90,0x2c,
0x50,0x00,0x90,0x38,0x5e,0x83,0x5c,0x80,0x2c,0x00,0x1e,0x80,0x58,0x00,0x00,0x80,
0x64,0x00,0x00,0x80,0x38,0x00,0x05,0x90,0x54,0x55,0x00,0x90,0x60,0x63,0x00,0x90,
0x21,0x52,0x00,0x90,0x2d,0x63,0x83,0x7f,0x80,0x21,0x00,0x1e,0x80,0x2d,0x00,0x01,
0x90,0x30,0x50,0x00,0x90,0x34,0x50,0x00,0x90,0x39,0x5e,0x83,0x5d,0x80,0x30,0x00,
0x00,0x80,0x34,0x00,0x1e,0x80,0x54,0x00,0x00,0x80,0x60,0x00,0x00,0x80,0x39,0x00,
0x01,0x90,0x51,0x51,0x00,0x90,0x5d,0x5f,0x00,0x90,0x21,0x4e,0x00,0x90,0x2d,0x5f,
0x83,0x5a,0x80,0x21,0x00,0x1e,0x80,0x2d,0x00,0x01,0x90,0x34,0x50,0x00,0x90,0x39,
0x50,0x00,0x90,0x3c,0x5e,0x83,0x5f,0x80,0x34,0x00,0x00,0x80,0x39,0x00,0x1e,0x80,
0x51,0x00,0x00,0x80,0x5d,0x00,0x00,0x80,0x3c,0x00,0x01,0x90,0x51,0x53,0x00,0x90,
0x5d,0x5d,0x00,0x90,0x21,0x50,0x00,0x90,0x2d,0x61,0x83,0x5f,0x80,0x21,0x00,0x1e,
0x80,0x2d,0x00,0x01,0x90,0x39,0x50,0x00,0x90,0x3c,0x50,0x00,0x90,0x40,0x5e,0x83,
0x5a,0x80,0x39,0x00,0x00,0x80,0x3c,0x00,0x1e,0x80,0x51,0x00,0x00,0x80,0x5d,0x00,
0x00,0x80,0x40,0x00,0x01,0x90,0x15,0x4e,0x00,0x90,0x21,0x5f,0x87,0x73,0x80,0x15,
0x00,0x00,0x80,0x21,0x00,0x05,0x90,0x58,0x44,0x00,0x90,0x34,0x48,0x00,0x90,0x39,
0x48,0x00,0x90,0x3c,0x48,0x00,0x90,0x40,0x56,0x82,0x25,0x90,0x51,0x3f,0x0e,0x80,
0x58,0x00,0x81,0x6b,0x90,0x5d,0x3f,0x0e,0x80,0x51,0x00,0x81,0x6b,0x90,0x51,0x3f,
0x0e,0x80,0x5d,0x00,0x81,0x75,0x90,0x54,0x40,0x0e,0x80,0x51,0x00,0x81,0x74,0x90,
0x51,0x3f,0x0e,0x80,0x54,0x00,0x81,0x69,0x90,0x5d,0x3f,0x0e,0x80,0x51,0x00,0x81,
0x6a,0x90,0x51,0x3f,0x0e,0x80,0x5d,0x00,0x81,0x77,0x80,0x34,0x00,0x00,0x80,0x39,
0x00,0x00,0x80,0x3c,0x00,0x00,0x80,0x40,0x00,0x01,0x90,0x58,0x42,0x00,0x90,0x30,
0x46,0x00,0x90,0x34,0x46,0x00,0x90,0x39,0x46,0x00,0x90,0x3c,0x54,0x0e,0x80,0x51,
0x00,0x81,0x79,0x90,0x51,0x3f,0x0e,0x80,0x58,0x00,0x81,0x69,0x90,0x5d,0x3f,0x0e,
0x80,0x51,0x00,0x81,0x6a,0x90,0x51,0x3f,0x0e,0x80,0x5d,0x00,0x81,0x73,0x90,0x54,
0x40,0x0e,0x80,0x51,0x00,0x81,0x73,0x90,0x51,0x3f,0x0e,0x80,0x54,0x00,0x81,0x6a,
0x90,0x5d,0x3f,0x0e,0x80,0x51,0x00,0x81,0x6a,0x90,0x51,0x3f,0x0e,0x80,0x5d,0x00,
0x81,0x74,0x80,0x30,0x00,0x00,0x80,0x34,0x00,0x00,0x80,0x39,0x00,0x00,0x80,0x3c,
0x00,0x05,0x90,0x58,0x44,0x00,0x90,0x32,0x48,0x00,0x90,0x34,0x48,0x00,0x90,0x38,
0x48,0x00,0x90,0x3b,0x56,0x0a,0x80,0x51,0x00,0x82,0x1b,0x90,0x50,0x3f,0x0e,0x80,
0x58,0x00,0x81,0x6b,0x90,0x5c,0x3f,0x0e,0x80,0x50,0x00,0x81,0x6b,0x90,0x50,0x3f,
0x0e,0x80,0x5c,0x00,0x81,0x75,0x90,0x56,0x40,0x0e,0x80,0x50,0x00,0x81,0x74,0x90,
0x50,0x3f,0x0e,0x80,0x56,0x00,0x81,0x69,0x90,0x5c,0x3f,0x0e,0x80,0x50,0x00,0x81,
0x6a,0x90,0x50,0x3f,0x0e,0x80,0x5c,0x00,0x81,0x77,0x80,0x32,0x00,0x00,0x80,0x34,
0x00,0x00,0x80,0x38,0x00,0x00,0x80,0x3b,0x00,0x01,0x90,0x58,0x42,0x00,0x90,0x2f,
0x46,0x00,0x90,0x34,0x46,0x00,0x90,0x38,0x54,0x0e,0x80,0x50,0x00,0x81,0x79,0x90,
0x50,0x3f,0x0e,0x80,0x58,0x00,0x81,0x69,0x90,0x5c,0x3f,0x0e,0x80,0x50,0x00,0x81,
0x6a,0x90,0x50,0x3f,0x0e,0x80,0x5c,0x00,0x81,0x73,0x90,0x53,0x40,0x0e,0x80,0x50,
0x00,0x81,0x73,0x90,0x50,0x3f,0x0e,0x80,0x53,0x00,0x81,0x6a,0x90,0x5c,0x3f,0x0e,
0x80,0x50,0x00,0x81,0x6a,0x90,0x50,0x3f,0x0e,0x80,0x5c,0x00,0x81,0x74,0x80,0x2f,
0x00,0x00,0x80,0x34,0x00,0x00,0x80,0x38,0x00,0x05,0x90,0x58,0x44,0x00,0x90,0x30,
0x48,0x00,0x90,0x34,0x48,0x00,0x90,0x39,0x48,0x00,0x90,0x3c,0x56,0x0a,0x80,0x50,
0x00,0x82,0x1b,0x90,0x51,0x3f,0x0e,0x80,0x58,0x00,0x81,0x6b,0x90,0x5d,0x3f,0x0e,
0x80,0x51,0x00,0x81,0x6b,0x90,0x51,0x3f,0x0e,0x80,0x5d,0x00,0x81,0x75,0x90,0x54,
0x40,0x0e,0x80,0x51,0x00,0x81,0x74,0x90,0x51,0x3f,0x0e,0x80,0x54,0x00,0x81,0x69,
0x90,0x5d,0x3f,0x0e,0x80,0x51,0x00,0x81,0x6a,0x90,0x51,0x3f,0x0e,0x80,0x5d,0x00,
0x81,0x77,0x80,0x30,0x00,0x00,0x80,0x34,0x00,0x00,0x80,0x39,0x00,0x00,0x80,0x3c,
0x00,0x01,0x90,0x58,0x42,0x00,0x90,0x2d,0x46,0x00,0x90,0x30,0x46,0x00,0x90,0x34,
0x46,0x00,0x90,0x39,0x54,0x0e,0x80,0x51,0x00,0x81,0x79,0x90,0x51,0x3f,0x0e,0x80,
0x58,0x00,0x81,0x69,0x90,0x5d,0x3f,0x0e,0x80,0x51,0x00,0x81,0x6a,0x90,0x51,0x3f,
0x0e,0x80,0x5d,0x00,0x81,0x73,0x90,0x54,0x40,0x0e,0x80,0x51,0x00,0x81,0x73,0x90,
0x51,0x3f,0x0e,0x80,0x54,0x00,0x81,0x6a,0x90,0x5d,0x3f,0x0e,0x80,0x51,0x00,0x81,
0x6a,0x90,0x51,0x3f,0x0e,0x80,0x5d,0x00,0x81,0x74,0x80,0x2d,0x00,0x00,0x80,0x30,
0x00,0x00,0x80,0x34,0x00,0x00,0x80,0x39,0x00,0x05,0x90,0x58,0x44,0x00,0x90,0x2c,
0x48,0x00,0x90,0x2f,0x48,0x00,0x90,0x34,0x48,0x00,0x90,0x38,0x56,0x0a,0x80,0x51,
0x00,0x82,0x1b,0x90,0x50,0x3f,0x0e,0x80,0x58,0x00,0x81,0x6b,0x90,0x5c,0x3f,0x0e,
0x80,0x50,0x00,0x81,0x6b,0x90,0x50,0x3f,0x0e,0x80,0x5c,0x00,0x81,0x75,0x90,0x56,
0x40,0x0e,0x80,0x50,0x00,0x81,0x74,0x90,0x50,0x3f,0x0e,0x80,0x56,0x00,0x81,0x69,
0x90,0x5c,0x3f,0x0e,0x80,0x50,0x00,0x81,0x6a,0x90,0x50,0x3f,0x0e,0x80,0x5c,0x00,
0x81,0x77,0x80,0x2c,0x00,0x00,0x80,0x2f,0x00,0x00,0x80,0x34,0x00,0x00,0x80,0x38,
0x00,0x01,0x90,0x58,0x42,0x00,0x90,0x2f,0x46,0x00,0x90,0x34,0x46,0x00,0x90,0x3b,
0x54,0x0e,0x80,0x50,0x00,0x81,0x79,0x90,0x50,0x3f,0x0e,0x80,0x58,0x00,0x81,0x69,
0x90,0x5c,0x3f,0x0e,0x80,0x50,0x00,0x81,0x69,0x80,0x5c,0x00,0x01,0x90,0x5c,0x3f,
0x82,0x01,0x90,0x68,0x40,0x0e,0x80,0x5c,0x00,0x81,0x73,0x90,0x5c,0x3f,0x0e,0x80,
0x68,0x00,0x81,0x69,0x80,0x5c,0x00,0x01,0x90,0x5c,0x3f,0x81,0x78,0x90,0x50,0x3f,
0x0e,0x80,0x5c,0x00,0x81,0x74,0x80,0x2f,0x00,0x00,0x80,0x34,0x00,0x00,0x80,0x3b,
0x00,0x05,0x90,0x58,0x44,0x00,0x90,0x34,0x48,0x00,0x90,0x39,0x48,0x00,0x90,0x3c,
0x48,0x00,0x90,0x40,0x56,0x0a,0x80,0x50,0x00,0x82,0x1b,0x90,0x51,0x3f,0x0e,0x80,
0x58,0x00,0x81,0x6b,0x90,0x5d,0x3f,0x0e,0x80,0x51,0x00,0x81,0x6b,0x90,0x51,0x3f,
0x0e,0x80,0x5d,0x00,0x81,0x75,0x90,0x54,0x40,0x0e,0x80,0x51,0x00,0x81,0x74,0x90,
0x51,0x3f,0x0e,0x80,0x54,0x00,0x81,0x69,0x90,0x5d,0x3f,0x0e,0x80,0x51,0x00,0x81,
0x6a,0x90,0x51,0x3f,0x0e,0x80,0x5d,0x00,0x81,0x77,0x80,0x34,0x00,0x00,0x80,0x39,
0x00,0x00,0x80,0x3c,0x00,0x00,0x80,0x40,0x00,0x01,0x90,0x58,0x42,0x00,0x90,0x30,
0x46,0x00,0x90,0x34,0x46,0x00,0x90,0x39,0x46,0x00,0x90,0x3c,0x54,0x0e,0x80,0x51,
0x00,0x81,0x79,0x90,0x51,0x3f,0x0e,0x80,0x58,0x00,0x81,0x69,0x90,0x5d,0x3f,0x0e,
0x80,0x51,0x00,0x81,0x6a,0x90,0x51,0x3f,0x0e,0x80,0x5d,0x00,0x81,0x73,0x90,0x54,
0x40,0x0e,0x80,0x51,0x00,0x81,0x73,0x90,0x51,0x3f,0x0e,0x80,0x54,0x00,0x81,0x6a,
0x90,0x5d,0x3f,0x0e,0x80,0x51,0x00,0x81,0x6a,0x90,0x51,0x3f,0x0e,0x80,0x5d,0x00,
0x81,0x74,0x80,0x30,0x00,0x00,0x80,0x34,0x00,0x00,0x80,0x39,0x00,0x00,0x80,0x3c,
0x00,0x05,0x90,0x58,0x44,0x00,0x90,0x32,0x48,0x00,0x90,0x34,0x48,0x00,0x90,0x38,
0x48,0x00,0x90,0x3b,0x56,0x0a,0x80,0x51,0x00,0x82,0x1b,0x90,0x50,0x3f,0x0e,0x80,
0x58,0x00,0x81,0x6b,0x90,0x5c,0x3f,0x0e,0x80,0x50,0x00,0x81,0x6b,0x90,0x50,0x3f,
0x0e,0x80,0x5c,0x00,0x81,0x75,0x90,0x56,0x40,0x0e,0x80,0x50,0x00,0x81,0x74,0x90,
0x50,0x3f,0x0e,0x80,0x56,0x00,0x81,0x69,0x90,0x5c,0x3f,0x0e,0x80,0x50,0x00,0x81,
0x6a,0x90,0x50,0x3f,0x0e,0x80,0x5c,0x00,0x81,0x77,0x80,0x32,0x00,0x00,0x80,0x34,
0x00,0x00,0x80,0x38,0x00,0x00,0x80,0x3b,0x00,0x01,0x90,0x58,0x42,0x00,0x90,0x2f,
0x46,0x00,0x90,0x34,0x46,0x00,0x90,0x38,0x54,0x0e,0x80,0x50,0x00,0x81,0x79,0x90,
0x50,0x3f,0x0e,0x80,0x58,0x00,0x81,0x69,0x90,0x5c,0x3f,0x0e,0x80,0x50,0x00,0x81,
0x6a,0x90,0x50,0x3f,0x0e,0x80,0x5c,0x00,0x81,0x73,0x90,0x53,0x40,0x0e,0x80,0x50,
0x00,0x81,0x73,0x90,0x50,0x3f,0x0e,0x80,0x53,0x00,0x81,0x6a,0x90,0x5c,0x3f,0x0e,
0x80,0x50,0x00,0x81,0x6a,0x90,0x50,0x3f,0x0e,0x80,0x5c,0x00,0x81,0x74,0x80,0x2f,
0x00,0x00,0x80,0x34,0x00,0x00,0x80,0x38,0x00,0x05,0x90,0x58,0x44,0x00,0x90,0x30,
0x48,0x00,0x90,0x34,0x48,0x00,0x90,0x39,0x48,0x00,0x90,0x3c,0x56,0x0a,0x80,0x50,
0x00,0x82,0x1b,0x90,0x51,0x3f,0x0e,0x80,0x58,0x00,0x81,0x6b,0x90,0x5d,0x3f,0x0e,
0x80,0x51,0x00,0x81,0x6b,0x90,0x51,0x3f,0x0e,0x80,0x5d,0x00,0x81,0x74,0x80,0x30,
0x00,0x00,0x80,0x34,0x00,0x00,0x80,0x39,0x00,0x00,0x80,0x3c,0x00,0x01,0x90,0x54,
0x40,0x00,0x90,0x34,0x44,0x00,0x90,0x39,0x44,0x00,0x90,0x3c,0x44,0x00,0x90,0x40,
0x52,0x0e,0x80,0x51,0x00,0x81,0x74,0x90,0x51,0x3f,0x0e,0x80,0x54,0x00,0x81,0x69,
0x90,0x5d,0x3f,0x0e,0x80,0x51,0x00,0x81,0x6a,0x90,0x51,0x3f,0x0e,0x80,0x5d,0x00,
0x81,0x77,0x80,0x34,0x00,0x00,0x80,0x39,0x00,0x00,0x80,0x3c,0x00,0x00,0x80,0x40,
0x00,0x01,0x90,0x58,0x42,0x00,0x90,0x39,0x46,0x00,0x90,0x3c,0x46,0x00,0x90,0x40,
0x46,0x00,0x90,0x45,0x54,0x0e,0x80,0x51,0x00,0x81,0x79,0x90,0x51,0x3f,0x0e,0x80,
0x58,0x00,0x81,0x69,0x90,0x5d,0x3f,0x0e,0x80,0x51,0x00,0x81,0x6a,0x90,0x51,0x3f,
0x0e,0x80,0x5d,0x00,0x81,0x73,0x90,0x54,0x40,0x0e,0x80,0x51,0x00,0x81,0x73,0x90,
0x51,0x3f,0x0e,0x80,0x54,0x00,0x81,0x6a,0x90,0x5d,0x3f,0x0e,0x80,0x51,0x00,0x81,
0x6a,0x90,0x51,0x3f,0x0e,0x80,0x5d,0x00,0x81,0x74,0x80,0x39,0x00,0x00,0x80,0x3c,
0x00,0x00,0x80,0x40,0x00,0x00,0x80,0x45,0x00,0x05,0x90,0x58,0x3f,0x00,0x90,0x38,
0x43,0x00,0x90,0x3b,0x43,0x00,0x90,0x40,0x43,0x00,0x90,0x44,0x51,0x0a,0x80,0x51,
0x00,0x82,0x1b,0x90,0x50,0x3f,0x0e,0x80,0x58,0x00,0x81,0x6b,0x90,0x5c,0x40,0x0e,
0x80,0x50,0x00,0x81,0x6b,0x90,0x50,0x41,0x0e,0x80,0x5c,0x00,0x81,0x75,0x90,0x53,
0x42,0x0e,0x80,0x50,0x00,0x81,0x74,0x90,0x50,0x43,0x0e,0x80,0x53,0x00,0x81,0x69,
0x90,0x5c,0x43,0x0e,0x80,0x50,0x00,0x81,0x6a,0x90,0x50,0x44,0x0e,0x80,0x5c,0x00,
0x81,0x77,0x80,0x38,0x00,0x00,0x80,0x3b,0x00,0x00,0x80,0x40,0x00,0x00,0x80,0x44,
0x00,0x01,0x90,0x58,0x45,0x00,0x90,0x20,0x46,0x00,0x90,0x23,0x47,0x00,0x90,0x28,
0x48,0x00,0x90,0x2c,0x57,0x0e,0x80,0x50,0x00,0x81,0x79,0x90,0x50,0x46,0x0e,0x80,
0x58,0x00,0x81,0x69,0x90,0x5c,0x47,0x0e,0x80,0x50,0x00,0x81,0x69,0x80,0x5c,0x00,
0x01,0x90,0x5c,0x47,0x81,0x74,0x80,0x5c,0x00,0x01,0x90,0x5d,0x4b,0x00,0x90,0x5d,
0x4b,0x00,0x90,0x69,0x4e,0x66,0x80,0x5d,0x00,0x00,0x80,0x69,0x00,0x00,0x90,0x5b,
0x4b,0x00,0x90,0x67,0x4f,0x66,0x80,0x5b,0x00,0x00,0x80,0x67,0x00,0x00,0x90,0x59,
0x4b,0x00,0x90,0x65,0x4f,0x66,0x80,0x59,0x00,0x00,0x80,0x65,0x00,0x00,0x90,0x58,
0x4b,0x00,0x90,0x64,0x4f,0x66,0x80,0x58,0x00,0x00,0x80,0x64,0x00,0x00,0x90,0x56,
0x4b,0x00,0x90,0x62,0x50,0x66,0x80,0x56,0x00,0x00,0x80,0x62,0x00,0x00,0x90,0x54,
0x4b,0x00,0x90,0x60,0x50,0x66,0x80,0x54,0x00,0x00,0x80,0x60,0x00,0x00,0x90,0x53,
0x4b,0x00,0x90,0x5f,0x50,0x66,0x80,0x53,0x00,0x00,0x80,0x5f,0x00,0x00,0x90,0x51,
0x4b,0x00,0x90,0x5d,0x51,0x66,0x80,0x51,0x00,0x00,0x80,0x5d,0x00,0x00,0x90,0x4f,
0x4b,0x00,0x90,0x5b,0x51,0x66,0x80,0x4f,0x00,0x00,0x80,0x5b,0x00,0x00,0x90,0x4d,
0x4b,0x00,0x90,0x59,0x5d,0x66,0x80,0x4d,0x00,0x00,0x80,0x59,0x00,0x03,0x80,0x20,
0x00,0x00,0x80,0x23,0x00,0x00,0x80,0x28,0x00,0x00,0x80,0x2c,0x00,0x01,0x80,0x5d,
0x00,0x00,0x90,0x4c,0x4b,0x04,0x90,0x58,0x63,0x00,0x90,0x1c,0x51,0x00,0x90,0x28,
0x62,0x83,0x7f,0x80,0x1c,0x00,0x1e,0x80,0x28,0x00,0x01,0x90,0x34,0x50,0x00,0x90,
0x37,0x50,0x00,0x90,0x3b,0x5e,0x83,0x5d,0x80,0x34,0x00,0x00,0x80,0x37,0x00,0x01,
0x80,0x4c,0x00,0x1d,0x80,0x58,0x00,0x00,0x80,0x3b,0x00,0x01,0x90,0x47,0x51,0x00,
0x90,0x53,0x5f,0x00,0x90,0x1c,0x4d,0x00,0x90,0x28,0x5e,0x83,0x5a,0x80,0x47,0x00,
0x00,0x80,0x1c,0x00,0x1e,0x80,0x53,0x00,0x00,0x80,0x28,0x00,0x01,0x90,0x48,0x50,
0x00,0x90,0x54,0x5e,0x00,0x90,0x34,0x50,0x00,0x90,0x37,0x50,0x00,0x90,0x3b,0x5e,
0x83,0x5f,0x80,0x48,0x00,0x00,0x80,0x34,0x00,0x00,0x80,0x37,0x00,0x1e,0x80,0x54,
0x00,0x00,0x80,0x3b,0x00,0x01,0x90,0x4a,0x53,0x00,0x90,0x56,0x61,0x00,0x90,0x1c,
0x4f,0x00,0x90,0x28,0x60,0x83,0x5f,0x80,0x4a,0x00,0x00,0x80,0x1c,0x00,0x1e,0x80,
0x56,0x00,0x00,0x80,0x28,0x00,0x01,0x90,0x58,0x58,0x00,0x90,0x34,0x50,0x00,0x90,
0x37,0x50,0x00,0x90,0x3b,0x5e,0x81,0x68,0x80,0x58,0x00,0x10,0x90,0x56,0x58,0x81,
0x62,0x80,0x34,0x00,0x00,0x80,0x37,0x00,0x0f,0x80,0x56,0x00,0x0f,0x80,0x3b,0x00,
0x01,0x90,0x48,0x51,0x00,0x90,0x54,0x5f,0x00,0x90,0x1c,0x4d,0x00,0x90,0x28,0x5e,
0x83,0x5a,0x80,0x48,0x00,0x00,0x80,0x1c,0x00,0x1e,0x80,0x54,0x00,0x00,0x80,0x28,
0x00,0x01,0x90,0x47,0x50,0x00,0x90,0x53,0x5e,0x00,0x90,0x34,0x50,0x00,0x90,0x37,
0x50,0x00,0x90,0x3b,0x5e,0x83,0x5c,0x80,0x47,0x00,0x00,0x80,0x34,0x00,0x00,0x80,
0x37,0x00,0x1e,0x80,0x53,0x00,0x00,0x80,0x3b,0x00,0x05,0x90,0x45,0x55,0x00,0x90,
0x51,0x63,0x00,0x90,0x21,0x52,0x00,0x90,0x2d,0x63,0x83,0x7f,0x80,0x21,0x00,0x1e,
0x80,0x2d,0x00,0x01,0x90,0x34,0x50,0x00,0x90,0x39,0x50,0x00,0x90,0x3c,0x5e,0x83,
0x5d,0x80,0x34,0x00,0x00,0x80,0x39,0x00,0x1e,0x80,0x45,0x00,0x00,0x80,0x51,0x00,
0x00,0x80,0x3c,0x00,0x01,0x90,0x45,0x51,0x00,0x90,0x51,0x5f,0x00,0x90,0x21,0x4e,
0x00,0x90,0x2d,0x5f,0x83,0x5a,0x80,0x45,0x00,0x00,0x80,0x21,0x00,0x1e,0x80,0x51,
0x00,0x00,0x80,0x2d,0x00,0x01,0x90,0x48,0x50,0x00,0x90,0x54,0x5e,0x00,0x90,0x30,
0x50,0x00,0x90,0x34,0x50,0x00,0x90,0x39,0x5e,0x83,0x5f,0x80,0x48,0x00,0x00,0x80,
0x30,0x00,0x00,0x80,0x34,0x00,0x1e,0x80,0x54,0x00,0x00,0x80,0x39,0x00,0x01,0x90,
0x4c,0x53,0x00,0x90,0x58,0x61,0x00,0x90,0x21,0x50,0x00,0x90,0x2d,0x61,0x83,0x5f,
0x80,0x21,0x00,0x1e,0x80,0x2d,0x00,0x01,0x90,0x34,0x50,0x00,0x90,0x39,0x50,0x00,
0x90,0x3c,0x5e,0x83,0x5a,0x80,0x34,0x00,0x00,0x80,0x39,0x00,0x1e,0x80,0x4c,0x00,
0x00,0x80,0x58,0x00,0x00,0x80,0x3c,0x00,0x01,0x90,0x4a,0x51,0x00,0x90,0x56,0x5f,
0x00,0x90,0x21,0x4e,0x00,0x90,0x2d,0x5f,0x83,0x5a,0x80,0x4a,0x00,0x00,0x80,0x21,
0x00,0x1e,0x80,0x56,0x00,0x00,0x80,0x2d,0x00,0x01,0x90,0x48,0x50,0x00,0x90,0x54,
0x5e,0x00,0x90,0x39,0x50,0x00,0x90,0x3c,0x50,0x00,0x90,0x40,0x5e,0x83,0x5c,0x80,
0x48,0x00,0x00,0x80,0x39,0x00,0x00,0x80,0x3c,0x00,0x1e,0x80,0x54,0x00,0x00,0x80,
0x40,0x00,0x05,0x90,0x47,0x55,0x00,0x90,0x53,0x63,0x00,0x90,0x20,0x52,0x00,0x90,
0x2c,0x63,0x83,0x7f,0x80,0x20,0x00,0x1e,0x80,0x2c,0x00,0x01,0x90,0x34,0x50,0x00,
0x90,0x38,0x50,0x00,0x90,0x3b,0x5e,0x83,0x5d,0x80,0x34,0x00,0x00,0x80,0x38,0x00,
0x1e,0x80,0x47,0x00,0x00,0x80,0x53,0x00,0x00,0x80,0x3b,0x00,0x01,0x90,0x47,0x51,
0x00,0x90,0x53,0x5f,0x00,0x90,0x1c,0x4d,0x00,0x90,0x28,0x5e,0x83,0x5a,0x80,0x47,
0x00,0x00,0x80,0x1c,0x00,0x1e,0x80,0x53,0x00,0x00,0x80,0x28,0x00,0x01,0x90,0x48,
0x50,0x00,0x90,0x54,0x5e,0x00,0x90,0x34,0x50,0x00,0x90,0x38,0x50,0x00,0x90,0x3b,
0x5e,0x83,0x5f,0x80,0x48,0x00,0x00,0x80,0x34,0x00,0x00,0x80,0x38,0x00,0x1e,0x80,
0x54,0x00,0x00,0x80,0x3b,0x00,0x01,0x90,0x4a,0x53,0x00,0x90,0x56,0x61,0x00,0x90,
0x20,0x50,0x00,0x90,0x2c,0x61,0x83,0x5f,0x80,0x20,0x00,0x1e,0x80,0x2c,0x00,0x01,
0x90,0x34,0x50,0x00,0x90,0x38,0x50,0x00,0x90,0x3b,0x50,0x00,0x90,0x40,0x5e,0x83,
0x5a,0x80,0x34,0x00,0x00,0x80,0x38,0x00,0x1e,0x80,0x4a,0x00,0x00,0x80,0x56,0x00,
0x00,0x80,0x3b,0x00,0x00,0x80,0x40,0x00,0x01,0x90,0x4c,0x51,0x00,0x90,0x58,0x5f,
0x00,0x90,0x1c,0x4d,0x00,0x90,0x28,0x5e,0x83,0x5a,0x80,0x1c,0x00,0x1e,0x80,0x28,
0x00,0x01,0x90,0x34,0x50,0x00,0x90,0x38,0x50,0x00,0x90,0x3b,0x50,0x00,0x90,0x40,
0x5e,0x83,0x5c,0x80,0x34,0x00,0x00,0x80,0x38,0x00,0x1e,0x80,0x4c,0x00,0x00,0x80,
0x58,0x00,0x00,0x80,0x3b,0x00,0x00,0x80,0x40,0x00,0x05,0x90,0x48,0x55,0x00,0x90,
0x54,0x63,0x00,0x90,0x21,0x52,0x00,0x90,0x2d,0x63,0x83,0x7f,0x80,0x21,0x00,0x1e,
0x80,0x48,0x00,0x00,0x80,0x54,0x00,0x00,0x80,0x2d,0x00,0x01,0x90,0x40,0x50,0x00,
0x90,0x45,0x50,0x00,0x90,0x48,0x5e,0x00,0x90,0x30,0x50,0x00,0x90,0x34,0x50,0x00,
0x90,0x39,0x50,0x00,0x90,0x3c,0x5e,0x83,0x5d,0x80,0x40,0x00,0x00,0x80,0x30,0x00,
0x1e,0x80,0x45,0x00,0x00,0x80,0x48,0x00,0x00,0x80,0x34,0x00,0x00,0x80,0x39,0x00,
0x00,0x80,0x3c,0x00,0x01,0x90,0x45,0x51,0x00,0x90,0x51,0x5f,0x00,0x90,0x15,0x4e,
0x00,0x90,0x21,0x5f,0x83,0x5a,0x80,0x15,0x00,0x1e,0x80,0x45,0x00,0x00,0x80,0x51,
0x00,0x00,0x80,0x21,0x00,0x01,0x90,0x45,0x50,0x00,0x90,0x48,0x50,0x00,0x90,0x4c,
0x5e,0x00,0x90,0x34,0x50,0x00,0x90,0x39,0x50,0x00,0x90,0x3c,0x50,0x00,0x90,0x40,
0x5e,0x83,0x5f,0x80,0x48,0x00,0x00,0x80,0x34,0x00,0x1e,0x80,0x45,0x00,0x00,0x80,
0x4c,0x00,0x00,0x80,0x39,0x00,0x00,0x80,0x3c,0x00,0x00,0x80,0x40,0x00,0x01,0x90,
0x45,0x53,0x00,0x90,0x51,0x61,0x00,0x90,0x21,0x50,0x00,0x90,0x2d,0x61,0x83,0x5f,
0x80,0x45,0x00,0x00,0x80,0x21,0x00,0x1e,0x80,0x51,0x00,0x00,0x80,0x2d,0x00,0x01,
0x90,0x48,0x5b,0x00,0x90,0x4c,0x5b,0x00,0x90,0x51,0x56,0x00,0x90,0x39,0x50,0x00,
0x90,0x3c,0x50,0x00,0x90,0x40,0x50,0x00,0x90,0x45,0x5e,0x83,0x5a,0x80,0x48,0x00,
0x00,0x80,0x4c,0x00,0x1e,0x80,0x51,0x00,0x00,0x80,0x39,0x00,0x00,0x80,0x3c,0x00,
0x00,0x80,0x40,0x00,0x00,0x80,0x45,0x00,0x01,0x90,0x51,0x59,0x00,0x90,0x39,0x59,
0x81,0x71,0x80,0x51,0x00,0x00,0x80,0x39,0x00,0x10,0x90,0x53,0x58,0x00,0x90,0x3b,
0x58,0x81,0x68,0x80,0x53,0x00,0x00,0x80,0x3b,0x00,0x10,0x90,0x54,0x58,0x00,0x90,
0x3c,0x58,0x81,0x68,0x80,0x54,0x00,0x00,0x80,0x3c,0x00,0x10,0x90,0x56,0x58,0x00,
0x90,0x3e,0x58,0x81,0x73,0x80,0x56,0x00,0x00,0x80,0x3e,0x00,0x14,0x90,0x4c,0x55,
0x00,0x90,0x58,0x63,0x00,0x90,0x34,0x55,0x00,0x90,0x40,0x63,0x83,0x7f,0x80,0x4c,
0x00,0x00,0x80,0x34,0x00,0x1e,0x80,0x58,0x00,0x00,0x80,0x40,0x00,0x01,0x90,0x4a,
0x50,0x00,0x90,0x56,0x5e,0x00,0x90,0x26,0x4f,0x00,0x90,0x29,0x50,0x00,0x90,0x2d,
0x5e,0x83,0x5d,0x80,0x26,0x00,0x00,0x80,0x29,0x00,0x1e,0x80,0x2d,0x00,0x01,0x90,
0x32,0x51,0x00,0x90,0x41,0x5f,0x83,0x5a,0x80,0x32,0x00,0x1e,0x80,0x4a,0x00,0x00,
0x80,0x56,0x00,0x00,0x80,0x41,0x00,0x01,0x90,0x4d,0x50,0x00,0x90,0x59,0x5e,0x00,
0x90,0x26,0x4f,0x00,0x90,0x29,0x50,0x00,0x90,0x2d,0x5e,0x83,0x5f,0x80,0x4d,0x00,
0x00,0x80,0x26,0x00,0x00,0x80,0x29,0x00,0x1e,0x80,0x59,0x00,0x00,0x80,0x2d,0x00,
0x01,0x90,0x51,0x53,0x00,0x90,0x5d,0x61,0x00,0x90,0x39,0x53,0x00,0x90,0x45,0x61,
0x83,0x5f,0x80,0x39,0x00,0x1e,0x80,0x45,0x00,0x01,0x90,0x26,0x4f,0x00,0x90,0x29,
0x50,0x00,0x90,0x2d,0x5e,0x83,0x5a,0x80,0x26,0x00,0x00,0x80,0x29,0x00,0x1e,0x80,
0x51,0x00,0x00,0x80,0x5d,0x00,0x00,0x80,0x2d,0x00,0x01,0x90,0x4f,0x51,0x00,0x90,
0x5b,0x5f,0x00,0x90,0x2d,0x51,0x00,0x90,0x39,0x5f,0x83,0x5a,0x80,0x4f,0x00,0x00,
0x80,0x2d,0x00,0x1e,0x80,0x5b,0x00,0x00,0x80,0x39,0x00,0x01,0x90,0x4d,0x50,0x00,
0x90,0x59,0x5e,0x00,0x90,0x29,0x50,0x00,0x90,0x35,0x5e,0x83,0x5c,0x80,0x4d,0x00,
0x00,0x80,0x29,0x00,0x1e,0x80,0x59,0x00,0x00,0x80,0x35,0x00,0x05,0x90,0x4c,0x55,
0x00,0x90,0x58,0x63,0x00,0x90,0x24,0x53,0x00,0x90,0x30,0x63,0x83,0x7f,0x80,0x24,
0x00,0x1e,0x80,0x30,0x00,0x01,0x90,0x30,0x50,0x00,0x90,0x3c,0x5e,0x83,0x7b,0x80,
0x30,0x00,0x00,0x80,0x3c,0x00,0x01,0x90,0x24,0x4f,0x00,0x90,0x30,0x5f,0x83,0x5a,
0x80,0x24,0x00,0x1e,0x80,0x4c,0x00,0x00,0x80,0x58,0x00,0x00,0x80,0x30,0x00,0x01,
0x90,0x48,0x50,0x00,0x90,0x54,0x5e,0x00,0x90,0x30,0x50,0x00,0x90,0x3c,0x5e,0x83,
0x5f,0x80,0x48,0x00,0x1e,0x80,0x54,0x00,0x00,0x80,0x30,0x00,0x00,0x80,0x3c,0x00,
0x01,0x90,0x4c,0x53,0x00,0x90,0x58,0x61,0x00,0x90,0x24,0x51,0x00,0x90,0x30,0x61,
0x83,0x5f,0x80,0x24,0x00,0x1e,0x80,0x30,0x00,0x01,0x90,0x34,0x50,0x00,0x90,0x39,
0x50,0x00,0x90,0x3c,0x5e,0x83,0x5a,0x80,0x34,0x00,0x00,0x80,0x39,0x00,0x1e,0x80,
0x4c,0x00,0x00,0x80,0x58,0x00,0x00,0x80,0x3c,0x00,0x01,0x90,0x4a,0x51,0x00,0x90,
0x56,0x5f,0x00,0x90,0x1f,0x4e,0x00,0x90,0x2b,0x5f,0x83,0x5a,0x80,0x4a,0x00,0x00,
0x80,0x1f,0x00,0x1e,0x80,0x56,0x00,0x00,0x80,0x2b,0x00,0x01,0x90,0x48,0x50,0x00,
0x90,0x54,0x5e,0x00,0x90,0x34,0x50,0x00,0x90,0x39,0x50,0x00,0x90,0x3c,0x5e,0x83,
0x5c,0x80,0x48,0x00,0x00,0x80,0x34,0x00,0x00,0x80,0x39,0x00,0x1e,0x80,0x54,0x00,
0x00,0x80,0x3c,0x00,0x05,0x90,0x47,0x55,0x00,0x90,0x53,0x63,0x00,0x90,0x23,0x53,
0x00,0x90,0x2f,0x63,0x83,0x7f,0x80,0x23,0x00,0x1e,0x80,0x2f,0x00,0x01,0x90,0x2f,
0x50,0x00,0x90,0x3b,0x5e,0x83,0x7b,0x80,0x47,0x00,0x00,0x80,0x53,0x00,0x00,0x80,
0x2f,0x00,0x00,0x80,0x3b,0x00,0x01,0x90,0x47,0x51,0x00,0x90,0x53,0x5f,0x00,0x90,
0x23,0x4f,0x00,0x90,0x2f,0x5f,0x83,0x5a,0x80,0x47,0x00,0x00,0x80,0x23,0x00,0x1e,
0x80,0x53,0x00,0x00,0x80,0x2f,0x00,0x01,0x90,0x48,0x50,0x00,0x90,0x54,0x5e,0x00,
0x90,0x2f,0x50,0x00,0x90,0x3b,0x5e,0x83,0x5f,0x80,0x48,0x00,0x00,0x80,0x2f,0x00,
0x1e,0x80,0x54,0x00,0x00,0x80,0x3b,0x00,0x01,0x90,0x4a,0x53,0x00,0x90,0x56,0x61,
0x00,0x90,0x32,0x53,0x00,0x90,0x3e,0x61,0x83,0x5f,0x80,0x32,0x00,0x1e,0x80,0x3e,
0x00,0x01,0x90,0x28,0x4f,0x00,0x90,0x34,0x5e,0x83,0x5a,0x80,0x28,0x00,0x1e,0x80,
0x4a,0x00,0x00,0x80,0x56,0x00,0x00,0x80,0x34,0x00,0x01,0x90,0x4c,0x51,0x00,0x90,
0x58,0x5f,0x00,0x90,0x34,0x51,0x00,0x90,0x38,0x51,0x00,0x90,0x3b,0x5f,0x83,0x5a,
0x80,0x34,0x00,0x1e,0x80,0x38,0x00,0x00,0x80,0x3b,0x00,0x01,0x90,0x2c,0x50,0x00,
0x90,0x38,0x5e,0x83,0x5c,0x80,0x2c,0x00,0x1e,0x80,0x4c,0x00,0x00,0x80,0x58,0x00,
0x00,0x80,0x38,0x00,0x05,0x90,0x48,0x55,0x00,0x90,0x54,0x63,0x00,0x90,0x21,0x52,
0x00,0x90,0x2d,0x63,0x83,0x7f,0x80,0x21,0x00,0x1e,0x80,0x2d,0x00,0x01,0x90,0x30,
0x50,0x00,0x90,0x34,0x50,0x00,0x90,0x39,0x5e,0x83,0x5d,0x80,0x30,0x00,0x00,0x80,
0x34,0x00,0x1e,0x80,0x48,0x00,0x00,0x80,0x54,0x00,0x00,0x80,0x39,0x00,0x01,0x90,
0x45,0x51,0x00,0x90,0x51,0x5f,0x00,0x90,0x21,0x4e,0x00,0x90,0x2d,0x5f,0x83,0x5a,
0x80,0x21,0x00,0x1e,0x80,0x2d,0x00,0x01,0x90,0x34,0x50,0x00,0x90,0x39,0x50,0x00,
0x90,0x3c,0x5e,0x83,0x5f,0x80,0x34,0x00,0x00,0x80,0x39,0x00,0x1e,0x80,0x45,0x00,
0x00,0x80,0x51,0x00,0x00,0x80,0x3c,0x00,0x01,0x90,0x45,0x53,0x00,0x90,0x51,0x61,
0x00,0x90,0x21,0x50,0x00,0x90,0x2d,0x61,0x83,0x5f,0x80,0x21,0x00,0x1e,0x80,0x2d,
0x00,0x01,0x90,0x39,0x50,0x00,0x90,0x3c,0x50,0x00,0x90,0x40,0x5e,0x83,0x5a,0x80,
0x39,0x00,0x00,0x80,0x3c,0x00,0x1e,0x80,0x45,0x00,0x00,0x80,0x51,0x00,0x00,0x80,
0x40,0x00,0x01,0x90,0x28,0x50,0x00,0x90,0x34,0x5f,0x81,0x71,0x80,0x28,0x00,0x0f,
0x80,0x34,0x00,0x01,0x90,0x26,0x4f,0x00,0x90,0x32,0x5e,0x81,0x68,0x80,0x26,0x00,
0x0f,0x80,0x32,0x00,0x01,0x90,0x24,0x4e,0x00,0x90,0x30,0x5e,0x81,0x68,0x80,0x24,
0x00,0x0f,0x80,0x30,0x00,0x01,0x90,0x23,0x4e,0x00,0x90,0x2f,0x5e,0x81,0x73,0x80,
0x23,0x00,0x0f,0x80,0x2f,0x00,0x05,0x90,0x58,0x55,0x00,0x90,0x64,0x63,0x00,0x90,
0x1c,0x51,0x00,0x90,0x28,0x62,0x83,0x7f,0x80,0x1c,0x00,0x1e,0x80,0x28,0x00,0x01,
0x90,0x34,0x50,0x00,0x90,0x37,0x50,0x00,0x90,0x3b,0x5e,0x83,0x5d,0x80,0x34,0x00,
0x00,0x80,0x37,0x00,0x1e,0x80,0x58,0x00,0x00,0x80,0x64,0x00,0x00,0x80,0x3b,0x00,
0x01,0x90,0x53,0x51,0x00,0x90,0x5f,0x5f,0x00,0x90,0x1c,0x4d,0x00,0x90,0x28,0x5e,
0x83,0x5a,0x80,0x53,0x00,0x00,0x80,0x1c,0x00,0x1e,0x80,0x5f,0x00,0x00,0x80,0x28,
0x00,0x01,0x90,0x54,0x50,0x00,0x90,0x60,0x5e,0x00,0x90,0x34,0x50,0x00,0x90,0x37,
0x50,0x00,0x90,0x3b,0x5e,0x83,0x5f,0x80,0x54,0x00,0x00,0x80,0x34,0x00,0x00,0x80,
0x37,0x00,0x1e,0x80,0x60,0x00,0x00,0x80,0x3b,0x00,0x01,0x90,0x56,0x53,0x00,0x90,
0x62,0x61,0x00,0x90,0x1c,0x4f,0x00,0x90,0x28,0x60,0x83,0x5f,0x80,0x56,0x00,0x00,
0x80,0x1c,0x00,0x1e,0x80,0x62,0x00,0x00,0x80,0x28,0x00,0x01,0x90,0x64,0x58,0x00,
0x90,0x34,0x50,0x00,0x90,0x37,0x50,0x00,0x90,0x3b,0x5e,0x81,0x68,0x80,0x64,0x00,
0x10,0x90,0x62,0x58,0x81,0x62,0x80,0x34,0x00,0x00,0x80,0x37,0x00,0x0f,0x80,0x62,
0x00,0x0f,0x80,0x3b,0x00,0x01,0x90,0x54,0x51,0x00,0x90,0x60,0x5f,0x00,0x90,0x1c,
0x4d,0x00,0x90,0x28,0x5e,0x83,0x5a,0x80,0x54,0x00,0x00,0x80,0x1c,0x00,0x1e,0x80,
0x60,0x00,0x00,0x80,0x28,0x00,0x01,0x90,0x53,0x50,0x00,0x90,0x5f,0x5e,0x00,0x90,
0x34,0x50,0x00,0x90,0x37,0x50,0x00,0x90,0x3b,0x5e,0x83,0x5c,0x80,0x53,0x00,0x00,
0x80,0x34,0x00,0x00,0x80,0x37,0x00,0x1e,0x80,0x5f,0x00,0x00,0x80,0x3b,0x00,0x05,
0x90,0x51,0x55,0x00,0x90,0x5d,0x63,0x00,0x90,0x21,0x52,0x00,0x90,0x2d,0x63,0x83,
0x7f,0x80,0x21,0x00,0x1e,0x80,0x2d,0x00,0x01,0x90,0x34,0x50,0x00,0x90,0x39,0x50,
0x00,0x90,0x3c,0x5e,0x83,0x5d,0x80,0x34,0x00,0x00,0x80,0x39,0x00,0x1e,0x80,0x51,
0x00,0x00,0x80,0x5d,0x00,0x00,0x80,0x3c,0x00,0x01,0x90,0x51,0x51,0x00,0x90,0x5d,
0x5f,0x00,0x90,0x21,0x4e,0x00,0x90,0x2d,0x5f,0x83,0x5a,0x80,0x51,0x00,0x00,0x80,
0x21,0x00,0x1e,0x80,0x5d,0x00,0x00,0x80,0x2d,0x00,0x01,0x90,0x54,0x50,0x00,0x90,
0x60,0x5e,0x00,0x90,0x30,0x50,0x00,0x90,0x34,0x50,0x00,0x90,0x39,0x5e,0x83,0x5f,
0x80,0x54,0x00,0x00,0x80,0x30,0x00,0x00,0x80,0x34,0x00,0x1e,0x80,0x60,0x00,0x00,
0x80,0x39,0x00,0x01,0x90,0x58,0x53,0x00,0x90,0x64,0x61,0x00,0x90,0x21,0x50,0x00,
0x90,0x2d,0x61,0x83,0x5f,0x80,0x21,0x00,0x1e,0x80,0x2d,0x00,0x01,0x90,0x34,0x50,
0x00,0x90,0x39,0x50,0x00,0x90,0x3c,0x5e,0x83,0x5a,0x80,0x34,0x00,0x00,0x80,0x39,
0x00,0x1e,0x80,0x58,0x00,0x00,0x80,0x64,0x00,0x00,0x80,0x3c,0x00,0x01,0x90,0x56,
0x51,0x00,0x90,0x62,0x5f,0x00,0x90,0x21,0x4e,0x00,0x90,0x2d,0x5f,0x83,0x5a,0x80,
0x56,0x00,0x00,0x80,0x21,0x00,0x1e,0x80,0x62,0x00,0x00,0x80,0x2d,0x00,0x01,0x90,
0x54,0x50,0x00,0x90,0x60,0x5e,0x00,0x90,0x39,0x50,0x00,0x90,0x3c,0x50,0x00,0x90,
0x40,0x5e,0x83,0x5c,0x80,0x54,0x00,0x00,0x80,0x39,0x00,0x00,0x80,0x3c,0x00,0x1e,
0x80,0x60,0x00,0x00,0x80,0x40,0x00,0x05,0x90,0x53,0x55,0x00,0x90,0x5f,0x63,0x00,
0x90,0x20,0x52,0x00,0x90,0x2c,0x63,0x83,0x7f,0x80,0x20,0x00,0x1e,0x80,0x2c,0x00,
0x01,0x90,0x34,0x50,0x00,0x90,0x38,0x50,0x00,0x90,0x3b,0x5e,0x83,0x5d,0x80,0x34,
0x00,0x00,0x80,0x38,0x00,0x1e,0x80,0x53,0x00,0x00,0x80,0x5f,0x00,0x00,0x80,0x3b,
0x00,0x01,0x90,0x53,0x51,0x00,0x90,0x5f,0x5f,0x00,0x90,0x1c,0x4d,0x00,0x90,0x28,
0x5e,0x83,0x5a,0x80,0x53,0x00,0x00,0x80,0x1c,0x00,0x1e,0x80,0x5f,0x00,0x00,0x80,
0x28,0x00,0x01,0x90,0x54,0x50,0x00,0x90,0x60,0x5e,0x00,0x90,0x34,0x50,0x00,0x90,
0x38,0x50,0x00,0x90,0x3b,0x5e,0x83,0x5f,0x80,0x54,0x00,0x00,0x80,0x34,0x00,0x00,
0x80,0x38,0x00,0x1e,0x80,0x60,0x00,0x00,0x80,0x3b,0x00,0x01,0x90,0x56,0x53,0x00,
0x90,0x62,0x61,0x00,0x90,0x20,0x50,0x00,0x90,0x2c,0x61,0x83,0x5f,0x80,0x20,0x00,
0x1e,0x80,0x2c,0x00,0x01,0x90,0x34,0x50,0x00,0x90,0x38,0x50,0x00,0x90,0x3b,0x50,
0x00,0x90,0x40,0x5e,0x83,0x5a,0x80,0x34,0x00,0x00,0x80,0x38,0x00,0x1e,0x80,0x56,
0x00,0x00,0x80,0x62,0x00,0x00,0x80,0x3b,0x00,0x00,0x80,0x40,0x00,0x01,0x90,0x58,
0x51,0x00,0x90,0x64,0x5f,0x00,0x90,0x1c,0x4d,0x00,0x90,0x28,0x5e,0x83,0x5a,0x80,
0x1c,0x00,0x1e,0x80,0x28,0x00,0x01,0x90,0x34,0x50,0x00,0x90,0x38,0x50,0x00,0x90,
0x3b,0x50,0x00,0x90,0x40,0x5e,0x83,0x5c,0x80,0x34,0x00,0x00,0x80,0x38,0x00,0x1e,
0x80,0x58,0x00,0x00,0x80,0x64,0x00,0x00,0x80,0x3b,0x00,0x00,0x80,0x40,0x00,0x05,
0x90,0x54,0x55,0x00,0x90,0x60,0x63,0x00,0x90,0x21,0x52,0x00,0x90,0x2d,0x63,0x83,
0x7f,0x80,0x21,0x00,0x1e,0x80,0x2d,0x00,0x01,0x90,0x30,0x50,0x00,0x90,0x34,0x50,
0x00,0x90,0x39,0x50,0x00,0x90,0x3c,0x5e,0x83,0x5d,0x80,0x30,0x00,0x1e,0x80,0x54,
0x00,0x00,0x80,0x60,0x00,0x00,0x80,0x34,0x00,0x00,0x80,0x39,0x00,0x00,0x80,0x3c,
0x00,0x01,0x90,0x51,0x51,0x00,0x90,0x5d,0x5f,0x00,0x90,0x15,0x4e,0x00,0x90,0x21,
0x5f,0x83,0x5a,0x80,0x15,0x00,0x1e,0x80,0x21,0x00,0x01,0x90,0x34,0x50,0x00,0x90,
0x39,0x50,0x00,0x90,0x3c,0x50,0x00,0x90,0x40,0x5e,0x83,0x5f,0x80,0x34,0x00,0x1e,
0x80,0x51,0x00,0x00,0x80,0x5d,0x00,0x00,0x80,0x39,0x00,0x00,0x80,0x3c,0x00,0x00,
0x80,0x40,0x00,0x01,0x90,0x51,0x53,0x00,0x90,0x5d,0x5d,0x00,0x90,0x21,0x50,0x00,
0x90,0x2d,0x61,0x83,0x5f,0x80,0x21,0x00,0x1e,0x80,0x2d,0x00,0x01,0x90,0x39,0x50,
0x00,0x90,0x3c,0x50,0x00,0x90,0x40,0x50,0x00,0x90,0x45,0x5e,0x83,0x78,0x80,0x51,
0x00,0x00,0x80,0x5d,0x00,0x00,0x80,0x39,0x00,0x00,0x80,0x3c,0x00,0x00,0x80,0x40,
0x00,0x00,0x80,0x45,0x00,0x01,0x90,0x5d,0x59,0x00,0x90,0x39,0x59,0x81,0x71,0x80,
0x5d,0x00,0x00,0x80,0x39,0x00,0x10,0x90,0x5f,0x58,0x00,0x90,0x3b,0x58,0x81,0x68,
0x80,0x5f,0x00,0x00,0x80,0x3b,0x00,0x10,0x90,0x60,0x58,0x00,0x90,0x3c,0x58,0x81,
0x68,0x80,0x60,0x00,0x00,0x80,0x3c,0x00,0x10,0x90,0x62,0x58,0x00,0x90,0x3e,0x58,
0x81,0x73,0x80,0x62,0x00,0x00,0x80,0x3e,0x00,0x14,0x90,0x58,0x55,0x00,0x90,0x64,
0x63,0x00,0x90,0x34,0x55,0x00,0x90,0x40,0x63,0x83,0x7f,0x80,0x58,0x00,0x00,0x80,
0x34,0x00,0x1e,0x80,0x64,0x00,0x00,0x80,0x40,0x00,0x01,0x90,0x56,0x50,0x00,0x90,
0x62,0x5e,0x00,0x90,0x26,0x4f,0x00,0x90,0x29,0x50,0x00,0x90,0x2d,0x5e,0x83,0x5d,
0x80,0x26,0x00,0x00,0x80,0x29,0x00,0x1e,0x80,0x2d,0x00,0x01,0x90,0x32,0x51,0x00,
0x90,0x41,0x5f,0x83,0x5a,0x80,0x32,0x00,0x1e,0x80,0x56,0x00,0x00,0x80,0x62,0x00,
0x00,0x80,0x41,0x00,0x01,0x90,0x59,0x50,0x00,0x90,0x65,0x5e,0x00,0x90,0x26,0x4f,
0x00,0x90,0x29,0x50,0x00,0x90,0x2d,0x5e,0x83,0x5f,0x80,0x59,0x00,0x00,0x80,0x26,
0x00,0x00,0x80,0x29,0x00,0x1e,0x80,0x65,0x00,0x00,0x80,0x2d,0x00,0x01,0x90,0x5d,
0x53,0x00,0x90,0x69,0x61,0x00,0x90,0x39,0x53,0x00,0x90,0x45,0x61,0x83,0x5f,0x80,
0x39,0x00,0x1e,0x80,0x45,0x00,0x01,0x90,0x26,0x4f,0x00,0x90,0x29,0x50,0x00,0x90,
0x2d,0x5e,0x83,0x5a,0x80,0x26,0x00,0x00,0x80,0x29,0x00,0x1e,0x80,0x5d,0x00,0x00,
0x80,0x69,0x00,0x00,0x80,0x2d,0x00,0x01,0x90,0x5b,0x51,0x00,0x90,0x67,0x5f,0x00,
0x90,0x2d,0x51,0x00,0x90,0x39,0x5f,0x83,0x5a,0x80,0x5b,0x00,0x00,0x80,0x2d,0x00,
0x1e,0x80,0x67,0x00,0x00,0x80,0x39,0x00,0x01,0x90,0x59,0x50,0x00,0x90,0x65,0x5e,
0x00,0x90,0x29,0x50,0x00,0x90,0x35,0x5e,0x83,0x5c,0x80,0x59,0x00,0x00,0x80,0x29,
0x00,0x1e,0x80,0x65,0x00,0x00,0x80,0x35,0x00,0x05,0x90,0x58,0x55,0x00,0x90,0x64,
0x63,0x00,0x90,0x24,0x53,0x00,0x90,0x30,0x63,0x83,0x7f,0x80,0x24,0x00,0x1e,0x80,
0x30,0x00,0x01,0x90,0x30,0x50,0x00,0x90,0x3c,0x5e,0x83,0x7b,0x80,0x30,0x00,0x00,
0x80,0x3c,0x00,0x01,0x90,0x24,0x4f,0x00,0x90,0x30,0x5f,0x83,0x5a,0x80,0x24,0x00,
0x1e,0x80,0x58,0x00,0x00,0x80,0x64,0x00,0x00,0x80,0x30,0x00,0x01,0x90,0x54,0x50,
0x00,0x90,0x60,0x5e,0x00,0x90,0x30,0x50,0x00,0x90,0x3c,0x5e,0x83,0x5f,0x80,0x54,
0x00,0x1e,0x80,0x60,0x00,0x00,0x80,0x30,0x00,0x00,0x80,0x3c,0x00,0x01,0x90,0x58,
0x53,0x00,0x90,0x64,0x61,0x00,0x90,0x24,0x51,0x00,0x90,0x30,0x61,0x83,0x5f,0x80,
0x24,0x00,0x1e,0x80,0x30,0x00,0x01,0x90,0x34,0x50,0x00,0x90,0x39,0x50,0x00,0x90,
0x3c,0x5e,0x83,0x5a,0x80,0x34,0x00,0x00,0x80,0x39,0x00,0x1e,0x80,0x58,0x00,0x00,
0x80,0x64,0x00,0x00,0x80,0x3c,0x00,0x01,0x90,0x56,0x51,0x00,0x90,0x62,0x5f,0x00,
0x90,0x1f,0x4e,0x00,0x90,0x2b,0x5f,0x83,0x5a,0x80,0x56,0x00,0x00,0x80,0x1f,0x00,
0x1e,0x80,0x62,0x00,0x00,0x80,0x2b,0x00,0x01,0x90,0x54,0x50,0x00,0x90,0x60,0x5e,
0x00,0x90,0x34,0x50,0x00,0x90,0x39,0x50,0x00,0x90,0x3c,0x5e,0x83,0x5c,0x80,0x54,
0x00,0x00,0x80,0x34,0x00,0x00,0x80,0x39,0x00,0x1e,0x80,0x60,0x00,0x00,0x80,0x3c,
0x00,0x05,0x90,0x53,0x55,0x00,0x90,0x5f,0x63,0x00,0x90,0x23,0x53,0x00,0x90,0x2f,
0x63,0x83,0x7f,0x80,0x23,0x00,0x1e,0x80,0x2f,0x00,0x01,0x90,0x2f,0x50,0x00,0x90,
0x3b,0x5e,0x83,0x7b,0x80,0x53,0x00,0x00,0x80,0x5f,0x00,0x00,0x80,0x2f,0x00,0x00,
0x80,0x3b,0x00,0x01,0x90,0x53,0x51,0x00,0x90,0x5f,0x5f,0x00,0x90,0x23,0x4f,0x00,
0x90,0x2f,0x5f,0x83,0x5a,0x80,0x53,0x00,0x00,0x80,0x23,0x00,0x1e,0x80,0x5f,0x00,
0x00,0x80,0x2f,0x00,0x01,0x90,0x54,0x50,0x00,0x90,0x60,0x5e,0x00,0x90,0x2f,0x50,
0x00,0x90,0x3b,0x5e,0x83,0x5f,0x80,0x54,0x00,0x00,0x80,0x2f,0x00,0x1e,0x80,0x60,
0x00,0x00,0x80,0x3b,0x00,0x01,0x90,0x56,0x53,0x00,0x90,0x62,0x61,0x00,0x90,0x32,
0x53,0x00,0x90,0x3e,0x61,0x83,0x5f,0x80,0x32,0x00,0x1e,0x80,0x3e,0x00,0x01,0x90,
0x28,0x4f,0x00,0x90,0x34,0x5e,0x83,0x5a,0x80,0x28,0x00,0x1e,0x80,0x56,0x00,0x00,
0x80,0x62,0x00,0x00,0x80,0x34,0x00,0x01,0x90,0x58,0x51,0x00,0x90,0x64,0x5f,0x00,
0x90,0x34,0x51,0x00,0x90,0x38,0x51,0x00,0x90,0x3b,0x5f,0x83,0x5a,0x80,0x34,0x00,
0x1e,0x80,0x38,0x00,0x00,0x80,0x3b,0x00,0x01,0x90,0x2c,0x50,0x00,0x90,0x38,0x5e,
0x83,0x5c,0x80,0x2c,0x00,0x1e,0x80,0x58,0x00,0x00,0x80,0x64,0x00,0x00,0x80,0x38,
0x00,0x05,0x90,0x54,0x55,0x00,0x90,0x60,0x63,0x00,0x90,0x21,0x52,0x00,0x90,0x2d,
0x63,0x83,0x7f,0x80,0x21,0x00,0x1e,0x80,0x2d,0x00,0x01,0x90,0x30,0x50,0x00,0x90,
0x34,0x50,0x00,0x90,0x39,0x5e,0x83,0x5d,0x80,0x30,0x00,0x00,0x80,0x34,0x00,0x1e,
0x80,0x54,0x00,0x00,0x80,0x60,0x00,0x00,0x80,0x39,0x00,0x01,0x90,0x51,0x51,0x00,
0x90,0x5d,0x5f,0x00,0x90,0x21,0x4e,0x00,0x90,0x2d,0x5f,0x83,0x5a,0x80,0x21,0x00,
0x1e,0x80,0x2d,0x00,0x01,0x90,0x34,0x50,0x00,0x90,0x39,0x50,0x00,0x90,0x3c,0x5e,
0x83,0x5f,0x80,0x34,0x00,0x00,0x80,0x39,0x00,0x1e,0x80,0x51,0x00,0x00,0x80,0x5d,
0x00,0x00,0x80,0x3c,0x00,0x01,0x90,0x51,0x53,0x00,0x90,0x5d,0x5d,0x00,0x90,0x21,
0x50,0x00,0x90,0x2d,0x61,0x83,0x5f,0x80,0x21,0x00,0x1e,0x80,0x2d,0x00,0x01,0x90,
0x39,0x50,0x00,0x90,0x3c,0x50,0x00,0x90,0x40,0x5e,0x5f,0x80,0x5d,0x00,0x0e,0x90,
0x64,0x58,0x81,0x00,0x80,0x64,0x00,0x00,0x90,0x65,0x58,0x81,0x00,0x80,0x65,0x00,
0x00,0x90,0x67,0x58,0x6d,0x80,0x39,0x00,0x00,0x80,0x3c,0x00,0x13,0x80,0x67,0x00,
0x0b,0x80,0x51,0x00,0x00,0x80,0x40,0x00,0x01,0x90,0x5d,0x51,0x00,0x90,0x69,0x5f,
0x00,0x90,0x15,0x4a,0x00,0x90,0x21,0x5c,0x87,0x73,0x80,0x5d,0x00,0x00,0x80,0x69,
0x00,0x00,0x80,0x15,0x00,0x00,0x80,0x21,0x00,0x05,0x90,0x51,0x51,0x00,0x90,0x34,
0x55,0x00,0x90,0x39,0x55,0x00,0x90,0x3c,0x55,0x00,0x90,0x40,0x63,0x82,0x25,0x90,
0x54,0x4c,0x0e,0x80,0x51,0x00,0x81,0x6b,0x90,0x58,0x4c,0x0e,0x80,0x54,0x00,0x81,
0x6b,0x90,0x5d,0x4c,0x0e,0x80,0x58,0x00,0x81,0x74,0x80,0x34,0x00,0x00,0x80,0x39,
0x00,0x00,0x80,0x3c,0x00,0x00,0x80,0x40,0x00,0x01,0x90,0x60,0x4d,0x00,0x90,0x21,
0x4e,0x00,0x90,0x2d,0x5f,0x0e,0x80,0x5d,0x00,0x81,0x74,0x90,0x5d,0x4c,0x0e,0x80,
0x60,0x00,0x81,0x69,0x90,0x58,0x4c,0x0e,0x80,0x5d,0x00,0x81,0x6a,0x90,0x54,0x4c,
0x0e,0x80,0x58,0x00,0x81,0x77,0x80,0x21,0x00,0x00,0x80,0x2d,0x00,0x01,0x90,0x51,
0x4f,0x00,0x90,0x30,0x53,0x00,0x90,0x34,0x53,0x00,0x90,0x39,0x53,0x00,0x90,0x3c,
0x61,0x0e,0x80,0x54,0x00,0x81,0x79,0x90,0x54,0x4c,0x0e,0x80,0x51,0x00,0x81,0x69,
0x90,0x58,0x4c,0x0e,0x80,0x54,0x00,0x81,0x6a,0x90,0x5d,0x4c,0x0e,0x80,0x58,0x00,
0x81,0x72,0x80,0x30,0x00,0x00,0x80,0x34,0x00,0x00,0x80,0x39,0x00,0x00,0x80,0x3c,
0x00,0x01,0x90,0x60,0x4d,0x00,0x90,0x21,0x4e,0x00,0x90,0x2d,0x5f,0x0e,0x80,0x5d,
0x00,0x81,0x73,0x90,0x5d,0x4c,0x0e,0x80,0x60,0x00,0x81,0x6a,0x90,0x58,0x4c,0x0e,
0x80,0x5d,0x00,0x81,0x6a,0x90,0x54,0x4c,0x0e,0x80,0x58,0x00,0x81,0x74,0x80,0x21,
0x00,0x00,0x80,0x2d,0x00,0x05,0x90,0x50,0x51,0x00,0x90,0x32,0x55,0x00,0x90,0x34,
0x55,0x00,0x90,0x38,0x55,0x00,0x90,0x3b,0x63,0x0a,0x80,0x54,0x00,0x82,0x1b,0x90,
0x53,0x4c,0x0e,0x80,0x50,0x00,0x81,0x6b,0x90,0x56,0x4c,0x0e,0x80,0x53,0x00,0x81,
0x6b,0x90,0x58,0x4c,0x0e,0x80,0x56,0x00,0x81,0x74,0x80,0x32,0x00,0x00,0x80,0x34,
0x00,0x00,0x80,0x38,0x00,0x00,0x80,0x3b,0x00,0x01,0x90,0x5c,0x4d,0x00,0x90,0x1c,
0x4d,0x00,0x90,0x28,0x5e,0x0e,0x80,0x58,0x00,0x81,0x74,0x90,0x5f,0x4c,0x0e,0x80,
0x5c,0x00,0x81,0x69,0x90,0x5c,0x4c,0x0e,0x80,0x5f,0x00,0x81,0x6a,0x90,0x58,0x4c,
0x0e,0x80,0x5c,0x00,0x81,0x77,0x80,0x1c,0x00,0x00,0x80,0x28,0x00,0x01,0x90,0x53,
0x4f,0x00,0x90,0x2f,0x53,0x00,0x90,0x34,0x53,0x00,0x90,0x38,0x61,0x0e,0x80,0x58,
0x00,0x81,0x79,0x90,0x50,0x4c,0x0e,0x80,0x53,0x00,0x81,0x69,0x90,0x53,0x4c,0x0e,
0x80,0x50,0x00,0x81,0x6a,0x90,0x58,0x4c,0x0e,0x80,0x53,0x00,0x81,0x72,0x80,0x2f,
0x00,0x00,0x80,0x34,0x00,0x00,0x80,0x38,0x00,0x01,0x90,0x5c,0x4d,0x00,0x90,0x1c,
0x4d,0x00,0x90,0x28,0x5e,0x0e,0x80,0x58,0x00,0x81,0x73,0x90,0x5f,0x4c,0x0e,0x80,
0x5c,0x00,0x81,0x6a,0x90,0x5c,0x4c,0x0e,0x80,0x5f,0x00,0x81,0x6a,0x90,0x58,0x4c,
0x0e,0x80,0x5c,0x00,0x81,0x74,0x80,0x1c,0x00,0x00,0x80,0x28,0x00,0x05,0x90,0x51,
0x51,0x00,0x90,0x30,0x55,0x00,0x90,0x34,0x55,0x00,0x90,0x39,0x55,0x00,0x90,0x3c,
0x63,0x0a,0x80,0x58,0x00,0x82,0x1b,0x90,0x54,0x4c,0x0e,0x80,0x51,0x00,0x81,0x6b,
0x90,0x58,0x4c,0x0e,0x80,0x54,0x00,0x81,0x6b,0x90,0x5d,0x4c,0x0e,0x80,0x58,0x00,
0x81,0x74,0x80,0x30,0x00,0x00,0x80,0x34,0x00,0x00,0x80,0x39,0x00,0x00,0x80,0x3c,
0x00,0x01,0x90,0x60,0x4d,0x00,0x90,0x21,0x4e,0x00,0x90,0x2d,0x5f,0x0e,0x80,0x5d,
0x00,0x81,0x74,0x90,0x5d,0x4c,0x0e,0x80,0x60,0x00,0x81,0x69,0x90,0x58,0x4c,0x0e,
0x80,0x5d,0x00,0x81,0x6a,0x90,0x54,0x4c,0x0e,0x80,0x58,0x00,0x81,0x77,0x80,0x21,
0x00,0x00,0x80,0x2d,0x00,0x01,0x90,0x51,0x4f,0x00,0x90,0x2d,0x53,0x00,0x90,0x30,
0x53,0x00,0x90,0x34,0x53,0x00,0x90,0x39,0x61,0x0e,0x80,0x54,0x00,0x81,0x79,0x90,
0x54,0x4c,0x0e,0x80,0x51,0x00,0x81,0x69,0x90,0x58,0x4c,0x0e,0x80,0x54,0x00,0x81,
0x6a,0x90,0x5d,0x4c,0x0e,0x80,0x58,0x00,0x81,0x72,0x80,0x2d,0x00,0x00,0x80,0x30,
0x00,0x00,0x80,0x34,0x00,0x00,0x80,0x39,0x00,0x01,0x90,0x60,0x4d,0x00,0x90,0x21,
0x4e,0x00,0x90,0x2d,0x5f,0x0e,0x80,0x5d,0x00,0x81,0x73,0x90,0x5d,0x4c,0x0e,0x80,
0x60,0x00,0x81,0x6a,0x90,0x58,0x4c,0x0e,0x80,0x5d,0x00,0x81,0x6a,0x90,0x54,0x4c,
0x0e,0x80,0x58,0x00,0x81,0x74,0x80,0x21,0x00,0x00,0x80,0x2d,0x00,0x05,0x90,0x50,
0x51,0x00,0x90,0x2c,0x55,0x00,0x90,0x2f,0x55,0x00,0x90,0x34,0x55,0x00,0x90,0x38,
0x63,0x0a,0x80,0x54,0x00,0x82,0x1b,0x90,0x44,0x4c,0x0e,0x80,0x50,0x00,0x81,0x6b,
0x90,0x50,0x4c,0x0e,0x80,0x44,0x00,0x81,0x6a,0x80,0x50,0x00,0x01,0x90,0x50,0x4c,
0x82,0x02,0x80,0x2c,0x00,0x00,0x80,0x2f,0x00,0x00,0x80,0x34,0x00,0x00,0x80,0x38,
0x00,0x01,0x90,0x5c,0x4d,0x00,0x90,0x1c,0x4d,0x00,0x90,0x28,0x5e,0x0e,0x80,0x50,
0x00,0x81,0x74,0x90,0x50,0x4c,0x0e,0x80,0x5c,0x00,0x81,0x69,0x90,0x58,0x4c,0x0e,
0x80,0x50,0x00,0x81,0x6a,0x90,0x4c,0x4c,0x0e,0x80,0x58,0x00,0x81,0x77,0x80,0x4c,
0x00,0x00,0x80,0x1c,0x00,0x00,0x80,0x28,0x00,0x01,0x90,0x4c,0x4f,0x00,0x90,0x2f,
0x53,0x00,0x90,0x34,0x53,0x00,0x90,0x38,0x53,0x00,0x90,0x3b,0x61,0x82,0x07,0x90,
0x40,0x4c,0x0e,0x80,0x4c,0x00,0x81,0x69,0x90,0x4c,0x4c,0x0e,0x80,0x40,0x00,0x81,
0x69,0x80,0x4c,0x00,0x01,0x90,0x4c,0x4c,0x82,0x00,0x80,0x2f,0x00,0x00,0x80,0x34,
0x00,0x00,0x80,0x38,0x00,0x00,0x80,0x3b,0x00,0x01,0x90,0x58,0x4d,0x00,0x90,0x28,
0x50,0x00,0x90,0x34,0x5f,0x0e,0x80,0x4c,0x00,0x81,0x72,0x80,0x58,0x00,0x01,0x90,
0x58,0x4c,0x81,0x78,0x90,0x64,0x4c,0x0e,0x80,0x58,0x00,0x81,0x6a,0x90,0x58,0x4c,
0x0e,0x80,0x64,0x00,0x81,0x74,0x80,0x28,0x00,0x00,0x80,0x34,0x00,0x05,0x90,0x51,
0x51,0x00,0x90,0x34,0x55,0x00,0x90,0x39,0x55,0x00,0x90,0x3c,0x55,0x00,0x90,0x40,
0x63,0x0a,0x80,0x58,0x00,0x82,0x1b,0x90,0x45,0x4c,0x0e,0x80,0x51,0x00,0x81,0x6b,
0x90,0x51,0x4c,0x0e,0x80,0x45,0x00,0x81,0x6a,0x80,0x51,0x00,0x01,0x90,0x51,0x4c,
0x82,0x02,0x80,0x34,0x00,0x00,0x80,0x39,0x00,0x00,0x80,0x3c,0x00,0x00,0x80,0x40,
0x00,0x01,0x90,0x5d,0x4d,0x00,0x90,0x21,0x4e,0x00,0x90,0x2d,0x5f,0x0e,0x80,0x51,
0x00,0x81,0x74,0x90,0x51,0x4c,0x0e,0x80,0x5d,0x00,0x81,0x69,0x90,0x5d,0x4c,0x0e,
0x80,0x51,0x00,0x81,0x69,0x80,0x5d,0x00,0x01,0x90,0x5d,0x4c,0x82,0x05,0x80,0x21,
0x00,0x00,0x80,0x2d,0x00,0x01,0x90,0x69,0x4f,0x00,0x90,0x30,0x53,0x00,0x90,0x34,
0x53,0x00,0x90,0x39,0x53,0x00,0x90,0x3c,0x61,0x0e,0x80,0x5d,0x00,0x81,0x79,0x90,
0x5d,0x4c,0x0e,0x80,0x69,0x00,0x81,0x68,0x80,0x5d,0x00,0x01,0x90,0x5d,0x4c,0x81,
0x78,0x90,0x51,0x4c,0x0e,0x80,0x5d,0x00,0x81,0x72,0x80,0x51,0x00,0x00,0x80,0x30,
0x00,0x00,0x80,0x34,0x00,0x00,0x80,0x39,0x00,0x00,0x80,0x3c,0x00,0x01,0x90,0x51,
0x4d,0x00,0x90,0x21,0x4e,0x00,0x90,0x2d,0x5f,0x82,0x01,0x90,0x45,0x4c,0x0e,0x80,
0x51,0x00,0x81,0x6a,0x90,0x51,0x4c,0x0e,0x80,0x45,0x00,0x81,0x6a,0x90,0x45,0x4c,
0x0e,0x80,0x51,0x00,0x81,0x74,0x80,0x21,0x00,0x00,0x80,0x2d,0x00,0x05,0x90,0x4c,
0x51,0x00,0x90,0x32,0x55,0x00,0x90,0x34,0x55,0x00,0x90,0x38,0x55,0x00,0x90,0x3b,
0x63,0x0a,0x80,0x45,0x00,0x82,0x1b,0x90,0x40,0x4c,0x0e,0x80,0x4c,0x00,0x81,0x6b,
0x90,0x4c,0x4c,0x0e,0x80,0x40,0x00,0x81,0x6a,0x80,0x4c,0x00,0x01,0x90,0x4c,0x4c,
0x82,0x02,0x80,0x32,0x00,0x00,0x80,0x34,0x00,0x00,0x80,0x38,0x00,0x00,0x80,0x3b,
0x00,0x01,0x90,0x58,0x4d,0x00,0x90,0x1c,0x4d,0x00,0x90,0x28,0x5e,0x0e,0x80,0x4c,
0x00,0x81,0x74,0x90,0x4c,0x4c,0x0e,0x80,0x58,0x00,0x81,0x69,0x90,0x58,0x4c,0x0e,
0x80,0x4c,0x00,0x81,0x69,0x80,0x58,0x00,0x01,0x90,0x58,0x4c,0x82,0x05,0x80,0x1c,
0x00,0x00,0x80,0x28,0x00,0x01,0x90,0x5f,0x4f,0x00,0x90,0x2f,0x53,0x00,0x90,0x34,
0x53,0x00,0x90,0x38,0x61,0x0e,0x80,0x58,0x00,0x81,0x79,0x90,0x53,0x4c,0x0e,0x80,
0x5f,0x00,0x81,0x68,0x80,0x53,0x00,0x01,0x90,0x53,0x4c,0x81,0x78,0x90,0x47,0x4c,
0x0e,0x80,0x53,0x00,0x81,0x72,0x80,0x2f,0x00,0x00,0x80,0x34,0x00,0x00,0x80,0x38,
0x00,0x01,0x90,0x53,0x4d,0x00,0x90,0x1c,0x4d,0x00,0x90,0x28,0x5e,0x0e,0x80,0x47,
0x00,0x81,0x73,0x90,0x58,0x4c,0x0e,0x80,0x53,0x00,0x81,0x6a,0x90,0x4c,0x4c,0x0e,
0x80,0x58,0x00,0x81,0x6a,0x90,0x58,0x4c,0x0e,0x80,0x4c,0x00,0x81,0x74,0x80,0x1c,
0x00,0x00,0x80,0x28,0x00,0x05,0x90,0x51,0x49,0x00,0x90,0x5d,0x57,0x00,0x90,0x30,
0x55,0x00,0x90,0x34,0x55,0x00,0x90,0x39,0x55,0x00,0x90,0x3c,0x63,0x0a,0x80,0x58,
0x00,0x82,0x1a,0x80,0x5d,0x00,0x01,0x90,0x58,0x44,0x00,0x90,0x5c,0x52,0x0e,0x80,
0x51,0x00,0x81,0x6a,0x80,0x5c,0x00,0x01,0x90,0x51,0x44,0x00,0x90,0x5d,0x52,0x0e,
0x80,0x58,0x00,0x81,0x6a,0x80,0x5d,0x00,0x01,0x90,0x53,0x44,0x00,0x90,0x5c,0x52,
0x0e,0x80,0x51,0x00,0x81,0x74,0x80,0x5c,0x00,0x00,0x80,0x30,0x00,0x00,0x80,0x34,
0x00,0x00,0x80,0x39,0x00,0x00,0x80,0x3c,0x00,0x01,0x90,0x51,0x45,0x00,0x90,0x5d,
0x53,0x00,0x90,0x34,0x51,0x00,0x90,0x39,0x51,0x00,0x90,0x3c,0x51,0x00,0x90,0x40,
0x5f,0x0e,0x80,0x53,0x00,0x81,0x73,0x80,0x5d,0x00,0x01,0x90,0x58,0x44,0x00,0x90,
0x5c,0x52,0x0e,0x80,0x51,0x00,0x81,0x68,0x80,0x5c,0x00,0x01,0x90,0x51,0x44,0x00,
0x90,0x5d,0x52,0x0e,0x80,0x58,0x00,0x81,0x69,0x80,0x5d,0x00,0x01,0x90,0x53,0x44,
0x00,0x90,0x5c,0x52,0x0e,0x80,0x51,0x00,0x81,0x77,0x80,0x5c,0x00,0x00,0x80,0x34,
0x00,0x00,0x80,0x39,0x00,0x00,0x80,0x3c,0x00,0x00,0x80,0x40,0x00,0x01,0x90,0x51,
0x47,0x00,0x90,0x5d,0x55,0x00,0x90,0x39,0x53,0x00,0x90,0x3c,0x53,0x00,0x90,0x40,
0x53,0x00,0x90,0x45,0x61,0x0e,0x80,0x53,0x00,0x81,0x78,0x80,0x5d,0x00,0x01,0x90,
0x58,0x44,0x00,0x90,0x5c,0x52,0x0e,0x80,0x51,0x00,0x81,0x68,0x80,0x5c,0x00,0x01,
0x90,0x51,0x44,0x00,0x90,0x5d,0x52,0x0e,0x80,0x58,0x00,0x81,0x69,0x80,0x5d,0x00,
0x01,0x90,0x53,0x44,0x00,0x90,0x5c,0x52,0x0e,0x80,0x51,0x00,0x81,0x72,0x80,0x5c,
0x00,0x00,0x80,0x39,0x00,0x00,0x80,0x3c,0x00,0x00,0x80,0x40,0x00,0x00,0x80,0x45,
0x00,0x01,0x90,0x51,0x45,0x00,0x90,0x5d,0x53,0x00,0x90,0x15,0x4a,0x00,0x90,0x1c,
0x4d,0x00,0x90,0x21,0x5c,0x0e,0x80,0x53,0x00,0x81,0x72,0x80,0x5d,0x00,0x01,0x90,
0x56,0x44,0x00,0x90,0x5c,0x52,0x0e,0x80,0x51,0x00,0x81,0x69,0x80,0x5c,0x00,0x01,
0x90,0x51,0x44,0x00,0x90,0x5d,0x52,0x0e,0x80,0x56,0x00,0x81,0x69,0x80,0x5d,0x00,
0x01,0x90,0x58,0x44,0x00,0x90,0x5c,0x52,0x0e,0x80,0x51,0x00,0x81,0x74,0x80,0x5c,
0x00,0x00,0x80,0x15,0x00,0x00,0x80,0x1c,0x00,0x00,0x80,0x21,0x00,0x05,0x90,0x5d,
0x51,0x00,0x90,0x38,0x55,0x00,0x90,0x3b,0x55,0x00,0x90,0x40,0x55,0x00,0x90,0x44,
0x63,0x0a,0x80,0x58,0x00,0x82,0x1b,0x90,0x58,0x4c,0x0e,0x80,0x5d,0x00,0x81,0x4c,
0x80,0x38,0x00,0x00,0x80,0x3b,0x00,0x1e,0x80,0x40,0x00,0x00,0x80,0x44,0x00,0x01,
0x90,0x54,0x4c,0x00,0x90,0x28,0x57,0x0e,0x80,0x58,0x00,0x81,0x6b,0x90,0x51,0x4c,
0x0e,0x80,0x54,0x00,0x81,0x56,0x80,0x28,0x00,0x1f,0x90,0x54,0x4d,0x00,0x90,0x2c,
0x59,0x0e,0x80,0x51,0x00,0x81,0x74,0x90,0x51,0x4c,0x0e,0x80,0x54,0x00,0x81,0x4a,
0x80,0x2c,0x00,0x1f,0x90,0x54,0x4c,0x00,0x90,0x2f,0x58,0x0e,0x80,0x51,0x00,0x81,
0x6a,0x90,0x58,0x4c,0x0e,0x80,0x54,0x00,0x81,0x59,0x80,0x2f,0x00,0x1f,0x90,0x54,
0x4f,0x00,0x90,0x34,0x5b,0x0e,0x80,0x58,0x00,0x81,0x79,0x90,0x51,0x4c,0x0e,0x80,
0x54,0x00,0x81,0x4a,0x80,0x34,0x00,0x1f,0x90,0x4c,0x4c,0x00,0x90,0x38,0x58,0x0e,
0x80,0x51,0x00,0x81,0x6a,0x90,0x48,0x4c,0x0e,0x80,0x4c,0x00,0x81,0x54,0x80,0x38,
0x00,0x1f,0x90,0x4c,0x4d,0x00,0x90,0x3b,0x59,0x0e,0x80,0x48,0x00,0x81,0x73,0x90,
0x48,0x4c,0x0e,0x80,0x4c,0x00,0x81,0x4b,0x80,0x3b,0x00,0x1f,0x90,0x45,0x4c,0x00,
0x90,0x40,0x58,0x0e,0x80,0x48,0x00,0x81,0x6a,0x90,0x48,0x4c,0x0e,0x80,0x45,0x00,
0x81,0x56,0x80,0x40,0x00,0x23,0x90,0x4c,0x55,0x00,0x90,0x51,0x55,0x00,0x90,0x54,
0x55,0x00,0x90,0x58,0x63,0x00,0x90,0x48,0x5d,0x0a,0x80,0x48,0x00,0x82,0x0b,0x80,
0x48,0x00,0x10,0x90,0x47,0x58,0x81,0x69,0x80,0x47,0x00,0x10,0x90,0x45,0x58,0x81,
0x69,0x80,0x45,0x00,0x10,0x90,0x43,0x58,0x81,0x73,0x80,0x43,0x00,0x0f,0x80,0x4c,
0x00,0x00,0x80,0x51,0x00,0x00,0x80,0x54,0x00,0x00,0x80,0x58,0x00,0x01,0x90,0x47,
0x51,0x00,0x90,0x53,0x5f,0x00,0x90,0x41,0x59,0x81,0x72,0x80,0x41,0x00,0x10,0x90,
0x40,0x58,0x81,0x58,0x80,0x47,0x00,0x0f,0x80,0x40,0x00,0x0f,0x80,0x53,0x00,0x01,
0x90,0x48,0x50,0x00,0x90,0x54,0x5e,0x00,0x90,0x3e,0x58,0x81,0x68,0x80,0x3e,0x00,
0x10,0x90,0x3c,0x58,0x81,0x67,0x80,0x48,0x00,0x0f,0x80,0x3c,0x00,0x0f,0x80,0x54,
0x00,0x01,0x90,0x4a,0x53,0x00,0x90,0x56,0x61,0x00,0x90,0x3b,0x5b,0x81,0x77,0x80,
0x3b,0x00,0x10,0x90,0x39,0x58,0x81,0x58,0x80,0x4a,0x00,0x0f,0x80,0x39,0x00,0x0f,
0x80,0x56,0x00,0x01,0x90,0x4c,0x50,0x00,0x90,0x58,0x5e,0x00,0x90,0x37,0x58,0x81,
0x68,0x80,0x4c,0x00,0x00,0x80,0x37,0x00,0x0f,0x80,0x58,0x00,0x01,0x90,0x4a,0x50,
0x00,0x90,0x56,0x5e,0x00,0x90,0x35,0x58,0x81,0x71,0x80,0x4a,0x00,0x00,0x80,0x35,
0x00,0x0f,0x80,0x56,0x00,0x01,0x90,0x48,0x51,0x00,0x90,0x4c,0x51,0x00,0x90,0x51,
0x51,0x00,0x90,0x54,0x5f,0x00,0x90,0x34,0x59,0x81,0x71,0x80,0x34,0x00,0x10,0x90,
0x32,0x58,0x81,0x59,0x80,0x48,0x00,0x0f,0x80,0x32,0x00,0x0f,0x80,0x4c,0x00,0x00,
0x80,0x51,0x00,0x00,0x80,0x54,0x00,0x01,0x90,0x47,0x50,0x00,0x90,0x4c,0x50,0x00,
0x90,0x50,0x50,0x00,0x90,0x53,0x5e,0x00,0x90,0x30,0x58,0x81,0x68,0x80,0x30,0x00,
0x10,0x90,0x2f,0x58,0x81,0x64,0x80,0x47,0x00,0x0f,0x80,0x2f,0x00,0x0f,0x80,0x4c,
0x00,0x00,0x80,0x50,0x00,0x00,0x80,0x53,0x00,0x05,0x90,0x45,0x55,0x00,0x90,0x48,
0x55,0x00,0x90,0x4c,0x55,0x00,0x90,0x51,0x63,0x00,0x90,0x40,0x5d,0x82,0x15,0x80,
0x40,0x00,0x10,0x90,0x3e,0x58,0x81,0x69,0x80,0x3e,0x00,0x0f,0x80,0x45,0x00,0x00,
0x80,0x48,0x00,0x00,0x80,0x4c,0x00,0x00,0x80,0x51,0x00,0x01,0x90,0x40,0x50,0x00,
0x90,0x45,0x50,0x00,0x90,0x48,0x5e,0x00,0x90,0x3c,0x58,0x81,0x69,0x80,0x3c,0x00,
0x10,0x90,0x3b,0x58,0x81,0x64,0x80,0x40,0x00,0x0f,0x80,0x3b,0x00,0x0f,0x80,0x45,
0x00,0x00,0x80,0x48,0x00,0x01,0x90,0x45,0x51,0x00,0x90,0x48,0x51,0x00,0x90,0x4c,
0x51,0x00,0x90,0x51,0x5f,0x00,0x90,0x39,0x59,0x81,0x72,0x80,0x39,0x00,0x10,0x90,
0x37,0x58,0x81,0x58,0x80,0x45,0x00,0x0f,0x80,0x37,0x00,0x0f,0x80,0x48,0x00,0x00,
0x80,0x4c,0x00,0x00,0x80,0x51,0x00,0x01,0x90,0x48,0x50,0x00,0x90,0x4c,0x50,0x00,
0x90,0x51,0x50,0x00,0x90,0x54,0x5e,0x00,0x90,0x35,0x58,0x81,0x68,0x80,0x35,0x00,
0x10,0x90,0x34,0x58,0x81,0x67,0x80,0x48,0x00,0x0f,0x80,0x34,0x00,0x0f,0x80,0x4c,
0x00,0x00,0x80,0x51,0x00,0x00,0x80,0x54,0x00,0x01,0x90,0x4c,0x53,0x00,0x90,0x51,
0x53,0x00,0x90,0x54,0x53,0x00,0x90,0x58,0x61,0x00,0x90,0x32,0x5b,0x81,0x77,0x80,
0x32,0x00,0x10,0x90,0x30,0x58,0x81,0x67,0x80,0x30,0x00,0x10,0x90,0x2f,0x58,0x81,
0x68,0x80,0x2f,0x00,0x10,0x90,0x2d,0x58,0x81,0x71,0x80,0x2d,0x00,0x0f,0x80,0x4c,
0x00,0x00,0x80,0x51,0x00,0x00,0x80,0x54,0x00,0x00,0x80,0x58,0x00,0x01,0x90,0x4a,
0x51,0x00,0x90,0x56,0x5f,0x00,0x90,0x2b,0x59,0x81,0x71,0x80,0x2b,0x00,0x10,0x90,
0x29,0x58,0x81,0x59,0x80,0x4a,0x00,0x0f,0x80,0x29,0x00,0x0f,0x80,0x56,0x00,0x01,
0x90,0x48,0x50,0x00,0x90,0x54,0x5e,0x00,0x90,0x28,0x57,0x81,0x68,0x80,0x28,0x00,
0x10,0x90,0x26,0x57,0x81,0x64,0x80,0x48,0x00,0x0f,0x80,0x26,0x00,0x0f,0x80,0x54,
0x00,0x05,0x90,0x47,0x55,0x00,0x90,0x4c,0x55,0x00,0x90,0x50,0x55,0x00,0x90,0x53,
0x63,0x00,0x90,0x3b,0x5d,0x82,0x15,0x80,0x3b,0x00,0x10,0x90,0x39,0x58,0x81,0x5a,
0x80,0x4c,0x00,0x0f,0x80,0x39,0x00,0x0f,0x80,0x47,0x00,0x00,0x80,0x50,0x00,0x00,
0x80,0x53,0x00,0x01,0x90,0x3b,0x50,0x00,0x90,0x40,0x50,0x00,0x90,0x47,0x5e,0x00,
0x90,0x38,0x58,0x81,0x69,0x80,0x38,0x00,0x10,0x90,0x36,0x58,0x81,0x64,0x80,0x3b,
0x00,0x00,0x80,0x40,0x00,0x0f,0x80,0x36,0x00,0x0f,0x80,0x47,0x00,0x01,0x90,0x47,
0x51,0x00,0x90,0x4c,0x51,0x00,0x90,0x50,0x51,0x00,0x90,0x53,0x5f,0x00,0x90,0x34,
0x59,0x81,0x72,0x80,0x34,0x00,0x10,0x90,0x32,0x58,0x81,0x58,0x80,0x47,0x00,0x0f,
0x80,0x32,0x00,0x0f,0x80,0x4c,0x00,0x00,0x80,0x50,0x00,0x00,0x80,0x53,0x00,0x01,
0x90,0x48,0x50,0x00,0x90,0x4c,0x50,0x00,0x90,0x51,0x50,0x00,0x90,0x54,0x5e,0x00,
0x90,0x30,0x58,0x81,0x68,0x80,0x30,0x00,0x10,0x90,0x2f,0x58,0x81,0x67,0x80,0x48,
0x00,0x00,0x80,0x4c,0x00,0x0f,0x80,0x2f,0x00,0x0f,0x80,0x51,0x00,0x00,0x80,0x54,
0x00,0x01,0x90,0x4a,0x53,0x00,0x90,0x4f,0x53,0x00,0x90,0x53,0x53,0x00,0x90,0x56,
0x61,0x00,0x90,0x2d,0x5b,0x81,0x77,0x80,0x2d,0x00,0x10,0x90,0x2b,0x58,0x81,0x58,
0x80,0x4f,0x00,0x0f,0x80,0x2b,0x00,0x0f,0x80,0x4a,0x00,0x00,0x80,0x53,0x00,0x00,
0x80,0x56,0x00,0x01,0x90,0x3e,0x50,0x00,0x90,0x45,0x50,0x00,0x90,0x4a,0x5e,0x00,
0x90,0x29,0x58,0x81,0x68,0x80,0x29,0x00,0x10,0x90,0x28,0x57,0x81,0x62,0x80,0x3e,
0x00,0x00,0x80,0x45,0x00,0x0f,0x80,0x28,0x00,0x0f,0x80,0x4a,0x00,0x01,0x90,0x4c,
0x51,0x00,0x90,0x51,0x51,0x00,0x90,0x54,0x51,0x00,0x90,0x58,0x5f,0x00,0x90,0x26,
0x58,0x81,0x71,0x80,0x26,0x00,0x10,0x90,0x24,0x56,0x81,0x59,0x80,0x51,0x00,0x0f,
0x80,0x24,0x00,0x0f,0x80,0x4c,0x00,0x00,0x80,0x54,0x00,0x00,0x80,0x58,0x00,0x01,
0x90,0x40,0x50,0x00,0x90,0x45,0x50,0x00,0x90,0x4c,0x5e,0x00,0x90,0x23,0x56,0x81,
0x68,0x80,0x23,0x00,0x10,0x90,0x21,0x55,0x81,0x64,0x80,0x40,0x00,0x00,0x80,0x45,
0x00,0x0f,0x80,0x21,0x00,0x0f,0x80,0x4c,0x00,0x05,0x90,0x48,0x55,0x00,0x90,0x4c,
0x55,0x00,0x90,0x51,0x55,0x00,0x90,0x54,0x63,0x00,0x90,0x39,0x5d,0x82,0x15,0x80,
0x39,0x00,0x10,0x90,0x37,0x58,0x81,0x5a,0x80,0x48,0x00,0x00,0x80,0x4c,0x00,0x0f,
0x80,0x37,0x00,0x0f,0x80,0x51,0x00,0x00,0x80,0x54,0x00,0x01,0x90,0x39,0x50,0x00,
0x90,0x40,0x50,0x00,0x90,0x45,0x5e,0x00,0x90,0x35,0x58,0x81,0x69,0x80,0x35,0x00,
0x10,0x90,0x34,0x58,0x81,0x64,0x80,0x39,0x00,0x00,0x80,0x40,0x00,0x0f,0x80,0x34,
0x00,0x0f,0x80,0x45,0x00,0x01,0x90,0x45,0x51,0x00,0x90,0x48,0x51,0x00,0x90,0x4c,
0x51,0x00,0x90,0x51,0x5f,0x00,0x90,0x32,0x59,0x81,0x72,0x80,0x32,0x00,0x10,0x90,
0x30,0x58,0x81,0x58,0x80,0x48,0x00,0x0f,0x80,0x30,0x00,0x0f,0x80,0x45,0x00,0x00,
0x80,0x4c,0x00,0x00,0x80,0x51,0x00,0x01,0x90,0x39,0x50,0x00,0x90,0x40,0x50,0x00,
0x90,0x45,0x5e,0x00,0x90,0x2f,0x58,0x81,0x68,0x80,0x2f,0x00,0x10,0x90,0x2d,0x58,
0x81,0x67,0x80,0x39,0x00,0x00,0x80,0x40,0x00,0x0f,0x80,0x2d,0x00,0x0f,0x80,0x45,
0x00,0x01,0x90,0x45,0x53,0x00,0x90,0x48,0x53,0x00,0x90,0x4c,0x53,0x00,0x90,0x51,
0x61,0x00,0x90,0x2f,0x5b,0x81,0x77,0x80,0x2f,0x00,0x10,0x90,0x30,0x58,0x81,0x58,
0x80,0x48,0x00,0x0f,0x80,0x30,0x00,0x0f,0x80,0x45,0x00,0x00,0x80,0x4c,0x00,0x00,
0x80,0x51,0x00,0x01,0x90,0x39,0x50,0x00,0x90,0x40,0x50,0x00,0x90,0x45,0x5e,0x00,
0x90,0x32,0x58,0x81,0x68,0x80,0x32,0x00,0x10,0x90,0x34,0x58,0x81,0x62,0x80,0x40,
0x00,0x0f,0x80,0x34,0x00,0x0f,0x80,0x39,0x00,0x00,0x80,0x45,0x00,0x01,0x90,0x39,
0x51,0x00,0x90,0x45,0x5f,0x00,0x90,0x21,0x4e,0x00,0x90,0x2d,0x5f,0x81,0x71,0x80,
0x39,0x00,0x00,0x80,0x21,0x00,0x0f,0x80,0x45,0x00,0x00,0x80,0x2d,0x00,0x01,0x90,
0x3b,0x50,0x00,0x90,0x47,0x5e,0x00,0x90,0x23,0x4e,0x00,0x90,0x2f,0x5e,0x81,0x68,
0x80,0x3b,0x00,0x00,0x80,0x23,0x00,0x0f,0x80,0x47,0x00,0x00,0x80,0x2f,0x00,0x01,
0x90,0x3c,0x50,0x00,0x90,0x48,0x5e,0x00,0x90,0x24,0x4e,0x00,0x90,0x30,0x5e,0x81,
0x68,0x80,0x3c,0x00,0x00,0x80,0x24,0x00,0x0f,0x80,0x48,0x00,0x00,0x80,0x30,0x00,
0x01,0x90,0x3e,0x50,0x00,0x90,0x4a,0x5e,0x00,0x90,0x26,0x4f,0x00,0x90,0x32,0x5e,
0x81,0x73,0x80,0x3e,0x00,0x00,0x80,0x26,0x00,0x0f,0x80,0x4a,0x00,0x00,0x80,0x32,
0x00,0x05,0x90,0x40,0x55,0x00,0x90,0x45,0x55,0x00,0x90,0x48,0x55,0x00,0x90,0x4c,
0x63,0x00,0x90,0x34,0x5d,0x82,0x15,0x80,0x34,0x00,0x10,0x90,0x32,0x58,0x81,0x5a,
0x80,0x40,0x00,0x0f,0x80,0x32,0x00,0x0f,0x80,0x45,0x00,0x00,0x80,0x48,0x00,0x00,
0x80,0x4c,0x00,0x01,0x90,0x3e,0x50,0x00,0x90,0x41,0x50,0x00,0x90,0x45,0x50,0x00,
0x90,0x4a,0x5e,0x00,0x90,0x30,0x58,0x81,0x69,0x80,0x30,0x00,0x10,0x90,0x2f,0x58,
0x81,0x73,0x80,0x2f,0x00,0x10,0x90,0x2d,0x59,0x81,0x72,0x80,0x2d,0x00,0x10,0x90,
0x2b,0x58,0x81,0x67,0x80,0x2b,0x00,0x0f,0x80,0x3e,0x00,0x00,0x80,0x41,0x00,0x00,
0x80,0x45,0x00,0x00,0x80,0x4a,0x00,0x01,0x90,0x41,0x50,0x00,0x90,0x4d,0x5e,0x00,
0x90,0x29,0x58,0x81,0x68,0x80,0x29,0x00,0x10,0x90,0x28,0x57,0x81,0x67,0x80,0x41,
0x00,0x0f,0x80,0x28,0x00,0x0f,0x80,0x4d,0x00,0x01,0x90,0x45,0x53,0x00,0x90,0x4a,
0x53,0x00,0x90,0x4d,0x53,0x00,0x90,0x51,0x61,0x00,0x90,0x29,0x5b,0x81,0x77,0x80,
0x29,0x00,0x10,0x90,0x2b,0x58,0x81,0x67,0x80,0x2b,0x00,0x10,0x90,0x2d,0x58,0x81,
0x68,0x80,0x2d,0x00,0x10,0x90,0x2f,0x58,0x81,0x71,0x80,0x2f,0x00,0x0f,0x80,0x45,
0x00,0x00,0x80,0x4a,0x00,0x00,0x80,0x4d,0x00,0x00,0x80,0x51,0x00,0x01,0x90,0x43,
0x51,0x00,0x90,0x4f,0x5f,0x00,0x90,0x30,0x59,0x81,0x71,0x80,0x30,0x00,0x10,0x90,
0x32,0x58,0x81,0x59,0x80,0x43,0x00,0x0f,0x80,0x32,0x00,0x0f,0x80,0x4f,0x00,0x01,
0x90,0x41,0x50,0x00,0x90,0x4d,0x5e,0x00,0x90,0x34,0x58,0x81,0x68,0x80,0x34,0x00,
0x10,0x90,0x35,0x58,0x81,0x64,0x80,0x41,0x00,0x0f,0x80,0x35,0x00,0x0f,0x80,0x4d,
0x00,0x05,0x90,0x40,0x55,0x00,0x90,0x4c,0x63,0x00,0x90,0x37,0x5d,0x82,0x15,0x80,
0x37,0x00,0x10,0x90,0x39,0x58,0x81,0x69,0x80,0x39,0x00,0x0f,0x80,0x40,0x00,0x00,
0x80,0x4c,0x00,0x01,0x90,0x40,0x50,0x00,0x90,0x45,0x50,0x00,0x90,0x48,0x50,0x00,
0x90,0x4c,0x5e,0x00,0x90,0x37,0x58,0x81,0x69,0x80,0x37,0x00,0x10,0x90,0x35,0x58,
0x81,0x73,0x80,0x35,0x00,0x0f,0x80,0x40,0x00,0x00,0x80,0x45,0x00,0x00,0x80,0x48,
0x00,0x00,0x80,0x4c,0x00,0x01,0x90,0x39,0x51,0x00,0x90,0x40,0x51,0x00,0x90,0x45,
0x5f,0x00,0x90,0x34,0x59,0x81,0x72,0x80,0x34,0x00,0x10,0x90,0x32,0x58,0x81,0x58,
0x80,0x39,0x00,0x0f,0x80,0x32,0x00,0x0f,0x80,0x40,0x00,0x00,0x80,0x45,0x00,0x01,
0x90,0x3c,0x50,0x00,0x90,0x40,0x50,0x00,0x90,0x45,0x50,0x00,0x90,0x48,0x5e,0x00,
0x90,0x30,0x58,0x81,0x68,0x80,0x30,0x00,0x10,0x90,0x2f,0x58,0x81,0x67,0x80,0x3c,
0x00,0x0f,0x80,0x2f,0x00,0x0f,0x80,0x40,0x00,0x00,0x80,0x45,0x00,0x00,0x80,0x48,
0x00,0x01,0x90,0x40,0x53,0x00,0x90,0x45,0x53,0x00,0x90,0x48,0x53,0x00,0x90,0x4c,
0x61,0x00,0x90,0x2d,0x5b,0x81,0x77,0x80,0x2d,0x00,0x10,0x90,0x2f,0x58,0x81,0x67,
0x80,0x2f,0x00,0x10,0x90,0x30,0x58,0x81,0x68,0x80,0x30,0x00,0x10,0x90,0x32,0x58,
0x81,0x71,0x80,0x32,0x00,0x0f,0x80,0x40,0x00,0x00,0x80,0x45,0x00,0x00,0x80,0x48,
0x00,0x00,0x80,0x4c,0x00,0x01,0x90,0x3e,0x51,0x00,0x90,0x4a,0x5f,0x00,0x90,0x34,
0x59,0x81,0x71,0x80,0x34,0x00,0x10,0x90,0x35,0x58,0x81,0x59,0x80,0x3e,0x00,0x0f,
0x80,0x35,0x00,0x0f,0x80,0x4a,0x00,0x01,0x90,0x3c,0x50,0x00,0x90,0x48,0x5e,0x00,
0x90,0x37,0x58,0x81,0x68,0x80,0x37,0x00,0x10,0x90,0x39,0x58,0x81,0x64,0x80,0x3c,
0x00,0x0f,0x80,0x39,0x00,0x0f,0x80,0x48,0x00,0x05,0x90,0x3b,0x55,0x00,0x90,0x40,
0x55,0x00,0x90,0x44,0x55,0x00,0x90,0x47,0x63,0x00,0x90,0x38,0x5d,0x82,0x15,0x80,
0x38,0x00,0x10,0x90,0x36,0x58,0x81,0x69,0x80,0x36,0x00,0x10,0x90,0x34,0x58,0x81,
0x69,0x80,0x34,0x00,0x10,0x90,0x32,0x58,0x81,0x73,0x80,0x32,0x00,0x0f,0x80,0x3b,
0x00,0x00,0x80,0x40,0x00,0x00,0x80,0x44,0x00,0x00,0x80,0x47,0x00,0x01,0x90,0x3b,
0x51,0x00,0x90,0x40,0x51,0x00,0x90,0x44,0x51,0x00,0x90,0x47,0x5f,0x00,0x90,0x30,
0x59,0x81,0x72,0x80,0x30,0x00,0x10,0x90,0x2f,0x58,0x81,0x58,0x80,0x3b,0x00,0x0f,
0x80,0x2f,0x00,0x0f,0x80,0x40,0x00,0x00,0x80,0x44,0x00,0x00,0x80,0x47,0x00,0x01,
0x90,0x3c,0x50,0x00,0x90,0x40,0x50,0x00,0x90,0x45,0x50,0x00,0x90,0x48,0x5e,0x00,
0x90,0x2c,0x58,0x81,0x68,0x80,0x2c,0x00,0x10,0x90,0x2a,0x58,0x81,0x67,0x80,0x3c,
0x00,0x0f,0x80,0x2a,0x00,0x0f,0x80,0x40,0x00,0x00,0x80,0x45,0x00,0x00,0x80,0x48,
0x00,0x01,0x90,0x3e,0x53,0x00,0x90,0x4a,0x61,0x00,0x90,0x28,0x5a,0x81,0x77,0x80,
0x28,0x00,0x10,0x90,0x29,0x58,0x81,0x67,0x80,0x29,0x00,0x10,0x90,0x2b,0x58,0x81,
0x68,0x80,0x2b,0x00,0x10,0x90,0x2d,0x58,0x81,0x71,0x80,0x2d,0x00,0x0f,0x80,0x3e,
0x00,0x00,0x80,0x4a,0x00,0x01,0x90,0x40,0x51,0x00,0x90,0x45,0x51,0x00,0x90,0x48,
0x51,0x00,0x90,0x4c,0x5f,0x00,0x90,0x2f,0x59,0x81,0x71,0x80,0x2f,0x00,0x10,0x90,
0x30,0x58,0x81,0x68,0x80,0x30,0x00,0x10,0x90,0x32,0x58,0x81,0x68,0x80,0x32,0x00,
0x10,0x90,0x34,0x58,0x81,0x73,0x80,0x34,0x00,0x0f,0x80,0x40,0x00,0x00,0x80,0x45,
0x00,0x00,0x80,0x48,0x00,0x00,0x80,0x4c,0x00,0x05,0x90,0x3c,0x55,0x00,0x90,0x40,
0x55,0x00,0x90,0x45,0x55,0x00,0x90,0x48,0x63,0x00,0x90,0x39,0x5d,0x82,0x15,0x80,
0x39,0x00,0x10,0x90,0x37,0x58,0x81,0x69,0x80,0x37,0x00,0x10,0x90,0x35,0x58,0x81,
0x69,0x80,0x35,0x00,0x10,0x90,0x34,0x58,0x81,0x73,0x80,0x34,0x00,0x0f,0x80,0x3c,
0x00,0x00,0x80,0x40,0x00,0x00,0x80,0x45,0x00,0x00,0x80,0x48,0x00,0x01,0x90,0x45,
0x51,0x00,0x90,0x48,0x51,0x00,0x90,0x4c,0x51,0x00,0x90,0x51,0x5f,0x00,0x90,0x32,
0x59,0x81,0x72,0x80,0x32,0x00,0x10,0x90,0x30,0x58,0x81,0x67,0x80,0x30,0x00,0x10,
0x90,0x2f,0x58,0x81,0x68,0x80,0x2f,0x00,0x10,0x90,0x2d,0x58,0x81,0x76,0x80,0x2d,
0x00,0x0f,0x80,0x45,0x00,0x00,0x80,0x48,0x00,0x00,0x80,0x4c,0x00,0x00,0x80,0x51,
0x00,0x01,0x90,0x45,0x53,0x00,0x90,0x48,0x5e,0x00,0x90,0x4c,0x5e,0x00,0x90,0x51,
0x59,0x00,0x90,0x2f,0x5b,0x81,0x77,0x80,0x2f,0x00,0x10,0x90,0x30,0x58,0x81,0x67,
0x80,0x30,0x00,0x10,0x90,0x32,0x58,0x81,0x68,0x80,0x32,0x00,0x10,0x90,0x34,0x58,
0x81,0x71,0x80,0x34,0x00,0x0f,0x80,0x45,0x00,0x00,0x80,0x48,0x00,0x00,0x80,0x4c,
0x00,0x00,0x80,0x51,0x00,0x01,0x90,0x45,0x51,0x00,0x90,0x51,0x5f,0x00,0x90,0x2d,
0x51,0x00,0x90,0x39,0x5f,0x81,0x71,0x80,0x45,0x00,0x00,0x80,0x2d,0x00,0x0f,0x80,
0x51,0x00,0x00,0x80,0x39,0x00,0x01,0x90,0x47,0x50,0x00,0x90,0x53,0x5e,0x00,0x90,
0x2f,0x50,0x00,0x90,0x3b,0x5e,0x81,0x68,0x80,0x47,0x00,0x00,0x80,0x2f,0x00,0x0f,
0x80,0x53,0x00,0x00,0x80,0x3b,0x00,0x01,0x90,0x48,0x50,0x00,0x90,0x54,0x5e,0x00,
0x90,0x30,0x50,0x00,0x90,0x3c,0x5e,0x81,0x68,0x80,0x48,0x00,0x00,0x80,0x30,0x00,
0x0f,0x80,0x54,0x00,0x00,0x80,0x3c,0x00,0x01,0x90,0x4a,0x50,0x00,0x90,0x56,0x5e,
0x00,0x90,0x32,0x50,0x00,0x90,0x3e,0x5e,0x81,0x73,0x80,0x4a,0x00,0x00,0x80,0x32,
0x00,0x0f,0x80,0x56,0x00,0x00,0x80,0x3e,0x00,0x05,0x90,0x4c,0x55,0x00,0x90,0x51,
0x55,0x00,0x90,0x54,0x55,0x00,0x90,0x58,0x63,0x00,0x90,0x34,0x55,0x00,0x90,0x39,
0x55,0x00,0x90,0x3c,0x55,0x00,0x90,0x40,0x63,0x83,0x7f,0x80,0x4c,0x00,0x00,0x80,
0x34,0x00,0x1e,0x80,0x51,0x00,0x00,0x80,0x54,0x00,0x00,0x80,0x58,0x00,0x00,0x80,
0x39,0x00,0x00,0x80,0x3c,0x00,0x00,0x80,0x40,0x00,0x01,0x90,0x4a,0x50,0x00,0x90,
0x4d,0x50,0x00,0x90,0x51,0x50,0x00,0x90,0x56,0x5e,0x00,0x90,0x32,0x50,0x00,0x90,
0x35,0x50,0x00,0x90,0x39,0x50,0x00,0x90,0x3e,0x5e,0x83,0x54,0xb0,0x40,0x7f,0x09,
0x80,0x4a,0x00,0x00,0x80,0x4d,0x00,0x00,0x80,0x35,0x00,0x1e,0x80,0x51,0x00,0x00,
0x80,0x56,0x00,0x00,0x80,0x32,0x00,0x00,0x80,0x39,0x00,0x00,0x80,0x3e,0x00,0x01,
0x90,0x39,0x51,0x00,0x90,0x3e,0x51,0x00,0x90,0x45,0x5f,0x00,0x90,0x1a,0x50,0x00,
0x90,0x21,0x51,0x00,0x90,0x26,0x5f,0x83,0x5a,0x80,0x39,0x00,0x00,0x80,0x3e,0x00,
0x1e,0x80,0x45,0x00,0x01,0x90,0x4d,0x50,0x00,0x90,0x51,0x50,0x00,0x90,0x56,0x50,
0x00,0x90,0x59,0x5e,0x83,0x5f,0x80,0x4d,0x00,0x1e,0x80,0x51,0x00,0x00,0x80,0x56,
0x00,0x00,0x80,0x59,0x00,0x00,0x80,0x1a,0x00,0x00,0x80,0x21,0x00,0x00,0x80,0x26,
0x00,0x01,0x90,0x51,0x53,0x00,0x90,0x56,0x53,0x00,0x90,0x59,0x53,0x00,0x90,0x5d,
0x61,0x00,0x90,0x2d,0x53,0x00,0x90,0x32,0x53,0x00,0x90,0x35,0x53,0x00,0x90,0x39,
0x61,0x83,0x7d,0x80,0x2d,0x00,0x00,0x80,0x32,0x00,0x00,0x80,0x35,0x00,0x00,0x80,
0x39,0x00,0x01,0x90,0x26,0x4f,0x00,0x90,0x2d,0x50,0x00,0x90,0x32,0x5e,0x83,0x51,
0xb0,0x40,0x00,0x09,0x80,0x26,0x00,0x00,0x80,0x2d,0x00,0x1e,0x80,0x51,0x00,0x00,
0x80,0x56,0x00,0x00,0x80,0x59,0x00,0x00,0x80,0x5d,0x00,0x00,0x80,0x32,0x00,0x01,
0x90,0x4f,0x51,0x00,0x90,0x5b,0x5f,0x00,0x90,0x37,0x51,0x00,0x90,0x43,0x5f,0x83,
0x5a,0x80,0x4f,0x00,0x00,0x80,0x37,0x00,0x1e,0x80,0x5b,0x00,0x00,0x80,0x43,0x00,
0x01,0x90,0x4d,0x50,0x00,0x90,0x59,0x5e,0x00,0x90,0x35,0x50,0x00,0x90,0x41,0x5e,
0x83,0x5c,0x80,0x4d,0x00,0x00,0x80,0x35,0x00,0x1e,0x80,0x59,0x00,0x00,0x80,0x41,
0x00,0x05,0x90,0x4c,0x55,0x00,0x90,0x51,0x55,0x00,0x90,0x54,0x55,0x00,0x90,0x58,
0x63,0x00,0x90,0x34,0x55,0x00,0x90,0x39,0x55,0x00,0x90,0x3c,0x55,0x00,0x90,0x40,
0x63,0x83,0x76,0xb0,0x40,0x7f,0x09,0x80,0x39,0x00,0x1e,0x80,0x34,0x00,0x00,0x80,
0x3c,0x00,0x00,0x80,0x40,0x00,0x01,0x90,0x1c,0x4f,0x00,0x90,0x21,0x50,0x00,0x90,
0x28,0x5e,0x83,0x7b,0x80,0x4c,0x00,0x00,0x80,0x51,0x00,0x00,0x80,0x54,0x00,0x00,
0x80,0x58,0x00,0x01,0x90,0x40,0x51,0x00,0x90,0x45,0x51,0x00,0x90,0x48,0x51,0x00,
0x90,0x4c,0x5f,0x83,0x5a,0x80,0x40,0x00,0x00,0x80,0x45,0x00,0x1e,0x80,0x48,0x00,
0x00,0x80,0x4c,0x00,0x00,0x80,0x1c,0x00,0x00,0x80,0x21,0x00,0x00,0x80,0x28,0x00,
0x01,0x90,0x48,0x50,0x00,0x90,0x54,0x5e,0x00,0x90,0x30,0x50,0x00,0x90,0x3c,0x5e,
0x83,0x5f,0x80,0x48,0x00,0x00,0x80,0x30,0x00,0x1e,0x80,0x54,0x00,0x00,0x80,0x3c,
0x00,0x01,0x90,0x4c,0x53,0x00,0x90,0x51,0x53,0x00,0x90,0x54,0x53,0x00,0x90,0x58,
0x61,0x00,0x90,0x34,0x53,0x00,0x90,0x39,0x53,0x00,0x90,0x3c,0x53,0x00,0x90,0x40,
0x61,0x87,0x76,0x80,0x4c,0x00,0x00,0x80,0x51,0x00,0x00,0x80,0x54,0x00,0x00,0x80,
0x58,0x00,0x00,0x80,0x34,0x00,0x00,0x80,0x39,0x00,0x00,0x80,0x3c,0x00,0x00,0x80,
0x40,0x00,0x01,0x90,0x4a,0x51,0x00,0x90,0x56,0x5f,0x00,0x90,0x32,0x51,0x00,0x90,
0x3e,0x5f,0x83,0x51,0xb0,0x40,0x00,0x09,0x80,0x4a,0x00,0x00,0x80,0x32,0x00,0x1e,
0x80,0x56,0x00,0x00,0x80,0x3e,0x00,0x01,0x90,0x48,0x50,0x00,0x90,0x54,0x5e,0x00,
0x90,0x30,0x50,0x00,0x90,0x3c,0x5e,0x83,0x5c,0x80,0x48,0x00,0x00,0x80,0x30,0x00,
0x1e,0x80,0x54,0x00,0x00,0x80,0x3c,0x00,0x05,0x90,0x47,0x55,0x00,0x90,0x4c,0x55,
0x00,0x90,0x50,0x55,0x00,0x90,0x53,0x63,0x00,0x90,0x2f,0x55,0x00,0x90,0x34,0x55,
0x00,0x90,0x38,0x55,0x00,0x90,0x3b,0x63,0x88,0x19,0x80,0x47,0x00,0x00,0x80,0x4c,
0x00,0x00,0x80,0x50,0x00,0x00,0x80,0x53,0x00,0x00,0x80,0x2f,0x00,0x00,0x80,0x34,
0x00,0x00,0x80,0x38,0x00,0x00,0x80,0x3b,0x00,0x01,0x90,0x47,0x51,0x00,0x90,0x53,
0x5f,0x00,0x90,0x2f,0x51,0x00,0x90,0x3b,0x5f,0x83,0x5a,0x80,0x47,0x00,0x00,0x80,
0x2f,0x00,0x1e,0x80,0x53,0x00,0x00,0x80,0x3b,0x00,0x01,0x90,0x48,0x50,0x00,0x90,
0x54,0x5e,0x00,0x90,0x30,0x50,0x00,0x90,0x3c,0x5e,0x83,0x5f,0x80,0x48,0x00,0x00,
0x80,0x30,0x00,0x1e,0x80,0x54,0x00,0x00,0x80,0x3c,0x00,0x01,0x90,0x4a,0x53,0x00,
0x90,0x4d,0x53,0x00,0x90,0x51,0x53,0x00,0x90,0x56,0x61,0x00,0x90,0x32,0x53,0x00,
0x90,0x35,0x53,0x00,0x90,0x39,0x53,0x00,0x90,0x3e,0x61,0x87,0x76,0x80,0x4a,0x00,
0x00,0x80,0x4d,0x00,0x00,0x80,0x51,0x00,0x00,0x80,0x56,0x00,0x00,0x80,0x32,0x00,
0x00,0x80,0x35,0x00,0x00,0x80,0x39,0x00,0x00,0x80,0x3e,0x00,0x01,0x90,0x4c,0x51,
0x00,0x90,0x51,0x51,0x00,0x90,0x54,0x51,0x00,0x90,0x58,0x5f,0x00,0x90,0x34,0x51,
0x00,0x90,0x39,0x51,0x00,0x90,0x3c,0x51,0x00,0x90,0x40,0x5f,0x87,0x73,0x80,0x4c,
0x00,0x00,0x80,0x51,0x00,0x00,0x80,0x54,0x00,0x00,0x80,0x58,0x00,0x00,0x80,0x34,
0x00,0x00,0x80,0x39,0x00,0x00,0x80,0x3c,0x00,0x00,0x80,0x40,0x00,0x05,0x90,0x48,
0x55,0x00,0x90,0x4c,0x55,0x00,0x90,0x51,0x55,0x00,0x90,0x54,0x63,0x00,0x90,0x30,
0x55,0x00,0x90,0x34,0x55,0x00,0x90,0x39,0x55,0x00,0x90,0x3c,0x63,0x88,0x19,0x80,
0x48,0x00,0x00,0x80,0x4c,0x00,0x00,0x80,0x51,0x00,0x00,0x80,0x54,0x00,0x00,0x80,
0x30,0x00,0x00,0x80,0x34,0x00,0x00,0x80,0x39,0x00,0x00,0x80,0x3c,0x00,0x01,0x90,
0x51,0x51,0x00,0x90,0x54,0x51,0x00,0x90,0x58,0x51,0x00,0x90,0x5d,0x5f,0x00,0x90,
0x2d,0x51,0x00,0x90,0x30,0x51,0x00,0x90,0x34,0x51,0x00,0x90,0x39,0x5f,0x84,0x5d,
0x80,0x58,0x00,0x00,0x80,0x5d,0x00,0x05,0x90,0x64,0x58,0x81,0x00,0x80,0x64,0x00,
0x00,0x90,0x65,0x58,0x81,0x00,0x80,0x65,0x00,0x00,0x90,0x67,0x58,0x81,0x00,0x80,
0x67,0x00,0x14,0x80,0x51,0x00,0x00,0x80,0x54,0x00,0x00,0x80,0x2d,0x00,0x00,0x80,
0x30,0x00,0x00,0x80,0x34,0x00,0x00,0x80,0x39,0x00,0x01,0x90,0x5d,0x53,0x00,0x90,
0x60,0x53,0x00,0x90,0x64,0x53,0x00,0x90,0x69,0x61,0x00,0x90,0x21,0x50,0x00,0x90,
0x28,0x52,0x00,0x90,0x2d,0x61,0x8f,0x6a,0x80,0x5d,0x00,0x00,0x80,0x60,0x00,0x00,
0x80,0x64,0x00,0x00,0x80,0x69,0x00,0x00,0x80,0x21,0x00,0x00,0x80,0x28,0x00,0x00,
0x80,0x2d,0x00,0x01,0xff,0x2f,0x00,
};
